<?xml version="1.0" encoding="UTF-8" standalone="no"?><svg xmlns="http://www.w3.org/2000/svg" xmlns:xlink="http://www.w3.org/1999/xlink" contentScriptType="application/ecmascript" contentStyleType="text/css" height="687px" preserveAspectRatio="none" style="width:901px;height:687px;background:#FFFFFF;" version="1.1" viewBox="0 0 901 687" width="901px" zoomAndPan="magnify"><defs><filter height="300%" id="fghglt33vxxm3" width="300%" x="-1" y="-1"><feGaussianBlur result="blurOut" stdDeviation="2.0"/><feColorMatrix in="blurOut" result="blurOut2" type="matrix" values="0 0 0 0 0 0 0 0 0 0 0 0 0 0 0 0 0 0 .4 0"/><feOffset dx="4.0" dy="4.0" in="blurOut2" result="blurOut3"/><feBlend in="SourceGraphic" in2="blurOut3" mode="normal"/></filter></defs><g><text fill="#000000" font-family="sans-serif" font-size="18" lengthAdjust="spacing" text-decoration="underline" textLength="221" x="333.5" y="18.6855">SQUARES's Class Diagram</text><text fill="#000000" font-family="sans-serif" font-size="18" lengthAdjust="spacing" textLength="0" x="446.5" y="41.3262"/><!--MD5=[5508ff9bbedac472b1f23f1d1e06e5c5]
cluster hk.edu.polyu.comp.comp3211.monopoly--><polygon fill="#FFFFFF" filter="url(#fghglt33vxxm3)" points="16,51.2813,300,51.2813,307,74.8906,884,74.8906,884,625.2813,16,625.2813,16,51.2813" style="stroke:#000000;stroke-width:1.5;"/><line style="stroke:#000000;stroke-width:1.5;" x1="16" x2="307" y1="74.8906" y2="74.8906"/><text fill="#000000" font-family="sans-serif" font-size="14" font-weight="bold" lengthAdjust="spacing" textLength="278" x="20" y="67.8145">hk.edu.polyu.comp.comp3211.monopoly</text><!--MD5=[e0d38505e61bf288b3ba973930295e9b]
cluster hk.edu.polyu.comp.comp3211.monopoly.model--><polygon fill="#FFFFFF" filter="url(#fghglt33vxxm3)" points="40,95.2813,89,95.2813,96,118.8906,860,118.8906,860,601.2813,40,601.2813,40,95.2813" style="stroke:#000000;stroke-width:1.5;"/><line style="stroke:#000000;stroke-width:1.5;" x1="40" x2="96" y1="118.8906" y2="118.8906"/><text fill="#000000" font-family="sans-serif" font-size="14" font-weight="bold" lengthAdjust="spacing" textLength="43" x="44" y="111.8145">model</text><!--MD5=[e1bc81e4763b4f0c877d6c7bfb2a0827]
cluster hk.edu.polyu.comp.comp3211.monopoly.model.squares--><polygon fill="#FFFFFF" filter="url(#fghglt33vxxm3)" points="64,139.2813,127,139.2813,134,162.8906,836,162.8906,836,473.2813,64,473.2813,64,139.2813" style="stroke:#000000;stroke-width:1.5;"/><line style="stroke:#000000;stroke-width:1.5;" x1="64" x2="134" y1="162.8906" y2="162.8906"/><text fill="#000000" font-family="sans-serif" font-size="14" font-weight="bold" lengthAdjust="spacing" textLength="57" x="68" y="155.8145">squares</text><!--MD5=[86715f2845c48b1c9eaa0e0dc90ca865]
class hk.edu.polyu.comp.comp3211.monopoly.model.Player--><rect fill="#FEFECE" filter="url(#fghglt33vxxm3)" height="48" id="hk.edu.polyu.comp.comp3211.monopoly.model.Player" style="stroke:#A80036;stroke-width:1.5;" width="66" x="634" y="537.2813"/><ellipse cx="649" cy="553.2813" fill="#ADD1B2" rx="11" ry="11" style="stroke:#A80036;stroke-width:1.0;"/><path d="M651.7656,549.1563 Q651.9219,548.9375 652.1094,548.8281 Q652.2969,548.7188 652.5156,548.7188 Q652.8906,548.7188 653.125,548.9844 Q653.3594,549.2344 653.3594,549.8438 L653.3594,551.2969 Q653.3594,551.9063 653.125,552.1719 Q652.8906,552.4375 652.5156,552.4375 Q652.1719,552.4375 651.9688,552.2344 Q651.7656,552.0469 651.6563,551.5313 Q651.6094,551.1719 651.4219,550.9844 Q651.0938,550.6094 650.4844,550.3906 Q649.875,550.1719 649.25,550.1719 Q648.4844,550.1719 647.8438,550.5 Q647.2188,550.8281 646.7188,551.5781 Q646.2344,552.3281 646.2344,553.3594 L646.2344,554.4531 Q646.2344,555.6875 647.125,556.5156 Q648.0156,557.3281 649.6094,557.3281 Q650.5469,557.3281 651.2031,557.0781 Q651.5938,556.9219 652.0156,556.4844 Q652.2813,556.2188 652.4219,556.1406 Q652.5781,556.0625 652.7813,556.0625 Q653.1094,556.0625 653.3594,556.3281 Q653.625,556.5781 653.625,556.9219 Q653.625,557.2656 653.2813,557.6719 Q652.7813,558.25 651.9844,558.5781 Q650.9063,559.0313 649.6094,559.0313 Q648.0938,559.0313 646.8906,558.4063 Q645.9063,557.9063 645.2188,556.8438 Q644.5313,555.7656 644.5313,554.4844 L644.5313,553.3281 Q644.5313,552 645.1406,550.8594 Q645.7656,549.7031 646.8594,549.0938 Q647.9531,548.4688 649.1875,548.4688 Q649.9219,548.4688 650.5625,548.6406 Q651.2188,548.7969 651.7656,549.1563 Z " fill="#000000"/><text fill="#000000" font-family="sans-serif" font-size="12" lengthAdjust="spacing" textLength="34" x="663" y="558.1914">Player</text><line style="stroke:#A80036;stroke-width:1.5;" x1="635" x2="699" y1="569.2813" y2="569.2813"/><line style="stroke:#A80036;stroke-width:1.5;" x1="635" x2="699" y1="577.2813" y2="577.2813"/><!--MD5=[206485ef97f1181ddf52c5e244d8d733]
class hk.edu.polyu.comp.comp3211.monopoly.model.squares.Chance--><rect codeLine="7" fill="#FEFECE" filter="url(#fghglt33vxxm3)" height="61.8359" id="hk.edu.polyu.comp.comp3211.monopoly.model.squares.Chance" style="stroke:#A80036;stroke-width:1.5;" width="75" x="80.5" y="346.7813"/><ellipse cx="95.5" cy="362.7813" fill="#ADD1B2" rx="11" ry="11" style="stroke:#A80036;stroke-width:1.0;"/><path d="M98.2656,358.6563 Q98.4219,358.4375 98.6094,358.3281 Q98.7969,358.2188 99.0156,358.2188 Q99.3906,358.2188 99.625,358.4844 Q99.8594,358.7344 99.8594,359.3438 L99.8594,360.7969 Q99.8594,361.4063 99.625,361.6719 Q99.3906,361.9375 99.0156,361.9375 Q98.6719,361.9375 98.4688,361.7344 Q98.2656,361.5469 98.1563,361.0313 Q98.1094,360.6719 97.9219,360.4844 Q97.5938,360.1094 96.9844,359.8906 Q96.375,359.6719 95.75,359.6719 Q94.9844,359.6719 94.3438,360 Q93.7188,360.3281 93.2188,361.0781 Q92.7344,361.8281 92.7344,362.8594 L92.7344,363.9531 Q92.7344,365.1875 93.625,366.0156 Q94.5156,366.8281 96.1094,366.8281 Q97.0469,366.8281 97.7031,366.5781 Q98.0938,366.4219 98.5156,365.9844 Q98.7813,365.7188 98.9219,365.6406 Q99.0781,365.5625 99.2813,365.5625 Q99.6094,365.5625 99.8594,365.8281 Q100.125,366.0781 100.125,366.4219 Q100.125,366.7656 99.7813,367.1719 Q99.2813,367.75 98.4844,368.0781 Q97.4063,368.5313 96.1094,368.5313 Q94.5938,368.5313 93.3906,367.9063 Q92.4063,367.4063 91.7188,366.3438 Q91.0313,365.2656 91.0313,363.9844 L91.0313,362.8281 Q91.0313,361.5 91.6406,360.3594 Q92.2656,359.2031 93.3594,358.5938 Q94.4531,357.9688 95.6875,357.9688 Q96.4219,357.9688 97.0625,358.1406 Q97.7188,358.2969 98.2656,358.6563 Z " fill="#000000"/><text fill="#000000" font-family="sans-serif" font-size="12" lengthAdjust="spacing" textLength="43" x="109.5" y="367.6914">Chance</text><line style="stroke:#A80036;stroke-width:1.5;" x1="81.5" x2="154.5" y1="378.7813" y2="378.7813"/><line style="stroke:#A80036;stroke-width:1.5;" x1="81.5" x2="154.5" y1="386.7813" y2="386.7813"/><ellipse cx="91.5" cy="397.7813" fill="#84BE84" rx="3" ry="3" style="stroke:#038048;stroke-width:1.0;"/><text fill="#000000" font-family="sans-serif" font-size="11" lengthAdjust="spacing" textLength="47" x="100.5" y="402.2002">execute()</text><!--MD5=[36d8cc961a5f19c6bf6b56b4f461e103]
class hk.edu.polyu.comp.comp3211.monopoly.model.squares.Free--><rect codeLine="18" fill="#FEFECE" filter="url(#fghglt33vxxm3)" height="61.8359" id="hk.edu.polyu.comp.comp3211.monopoly.model.squares.Free" style="stroke:#A80036;stroke-width:1.5;" width="73" x="190.5" y="346.7813"/><ellipse cx="212.7" cy="362.7813" fill="#ADD1B2" rx="11" ry="11" style="stroke:#A80036;stroke-width:1.0;"/><path d="M215.4656,358.6563 Q215.6219,358.4375 215.8094,358.3281 Q215.9969,358.2188 216.2156,358.2188 Q216.5906,358.2188 216.825,358.4844 Q217.0594,358.7344 217.0594,359.3438 L217.0594,360.7969 Q217.0594,361.4063 216.825,361.6719 Q216.5906,361.9375 216.2156,361.9375 Q215.8719,361.9375 215.6688,361.7344 Q215.4656,361.5469 215.3563,361.0313 Q215.3094,360.6719 215.1219,360.4844 Q214.7938,360.1094 214.1844,359.8906 Q213.575,359.6719 212.95,359.6719 Q212.1844,359.6719 211.5438,360 Q210.9188,360.3281 210.4188,361.0781 Q209.9344,361.8281 209.9344,362.8594 L209.9344,363.9531 Q209.9344,365.1875 210.825,366.0156 Q211.7156,366.8281 213.3094,366.8281 Q214.2469,366.8281 214.9031,366.5781 Q215.2938,366.4219 215.7156,365.9844 Q215.9813,365.7188 216.1219,365.6406 Q216.2781,365.5625 216.4813,365.5625 Q216.8094,365.5625 217.0594,365.8281 Q217.325,366.0781 217.325,366.4219 Q217.325,366.7656 216.9813,367.1719 Q216.4813,367.75 215.6844,368.0781 Q214.6063,368.5313 213.3094,368.5313 Q211.7938,368.5313 210.5906,367.9063 Q209.6063,367.4063 208.9188,366.3438 Q208.2313,365.2656 208.2313,363.9844 L208.2313,362.8281 Q208.2313,361.5 208.8406,360.3594 Q209.4656,359.2031 210.5594,358.5938 Q211.6531,357.9688 212.8875,357.9688 Q213.6219,357.9688 214.2625,358.1406 Q214.9188,358.2969 215.4656,358.6563 Z " fill="#000000"/><text fill="#000000" font-family="sans-serif" font-size="12" lengthAdjust="spacing" textLength="25" x="228.3" y="367.6914">Free</text><line style="stroke:#A80036;stroke-width:1.5;" x1="191.5" x2="262.5" y1="378.7813" y2="378.7813"/><line style="stroke:#A80036;stroke-width:1.5;" x1="191.5" x2="262.5" y1="386.7813" y2="386.7813"/><ellipse cx="201.5" cy="397.7813" fill="#84BE84" rx="3" ry="3" style="stroke:#038048;stroke-width:1.0;"/><text fill="#000000" font-family="sans-serif" font-size="11" lengthAdjust="spacing" textLength="47" x="210.5" y="402.2002">execute()</text><!--MD5=[37a71ac37b74dd9187bf3b64a88abdb7]
class hk.edu.polyu.comp.comp3211.monopoly.model.squares.Go--><rect codeLine="29" fill="#FEFECE" filter="url(#fghglt33vxxm3)" height="61.8359" id="hk.edu.polyu.comp.comp3211.monopoly.model.squares.Go" style="stroke:#A80036;stroke-width:1.5;" width="73" x="298.5" y="346.7813"/><ellipse cx="324.75" cy="362.7813" fill="#ADD1B2" rx="11" ry="11" style="stroke:#A80036;stroke-width:1.0;"/><path d="M327.5156,358.6563 Q327.6719,358.4375 327.8594,358.3281 Q328.0469,358.2188 328.2656,358.2188 Q328.6406,358.2188 328.875,358.4844 Q329.1094,358.7344 329.1094,359.3438 L329.1094,360.7969 Q329.1094,361.4063 328.875,361.6719 Q328.6406,361.9375 328.2656,361.9375 Q327.9219,361.9375 327.7188,361.7344 Q327.5156,361.5469 327.4063,361.0313 Q327.3594,360.6719 327.1719,360.4844 Q326.8438,360.1094 326.2344,359.8906 Q325.625,359.6719 325,359.6719 Q324.2344,359.6719 323.5938,360 Q322.9688,360.3281 322.4688,361.0781 Q321.9844,361.8281 321.9844,362.8594 L321.9844,363.9531 Q321.9844,365.1875 322.875,366.0156 Q323.7656,366.8281 325.3594,366.8281 Q326.2969,366.8281 326.9531,366.5781 Q327.3438,366.4219 327.7656,365.9844 Q328.0313,365.7188 328.1719,365.6406 Q328.3281,365.5625 328.5313,365.5625 Q328.8594,365.5625 329.1094,365.8281 Q329.375,366.0781 329.375,366.4219 Q329.375,366.7656 329.0313,367.1719 Q328.5313,367.75 327.7344,368.0781 Q326.6563,368.5313 325.3594,368.5313 Q323.8438,368.5313 322.6406,367.9063 Q321.6563,367.4063 320.9688,366.3438 Q320.2813,365.2656 320.2813,363.9844 L320.2813,362.8281 Q320.2813,361.5 320.8906,360.3594 Q321.5156,359.2031 322.6094,358.5938 Q323.7031,357.9688 324.9375,357.9688 Q325.6719,357.9688 326.3125,358.1406 Q326.9688,358.2969 327.5156,358.6563 Z " fill="#000000"/><text fill="#000000" font-family="sans-serif" font-size="12" lengthAdjust="spacing" textLength="16" x="341.25" y="367.6914">Go</text><line style="stroke:#A80036;stroke-width:1.5;" x1="299.5" x2="370.5" y1="378.7813" y2="378.7813"/><line style="stroke:#A80036;stroke-width:1.5;" x1="299.5" x2="370.5" y1="386.7813" y2="386.7813"/><ellipse cx="309.5" cy="397.7813" fill="#84BE84" rx="3" ry="3" style="stroke:#038048;stroke-width:1.0;"/><text fill="#000000" font-family="sans-serif" font-size="11" lengthAdjust="spacing" textLength="47" x="318.5" y="402.2002">execute()</text><!--MD5=[a12b85af0d3647f221773754022d807a]
class hk.edu.polyu.comp.comp3211.monopoly.model.squares.ISquare--><rect codeLine="40" fill="#FEFECE" filter="url(#fghglt33vxxm3)" height="61.8359" id="hk.edu.polyu.comp.comp3211.monopoly.model.squares.ISquare" style="stroke:#A80036;stroke-width:1.5;" width="76" x="405" y="175.2813"/><ellipse cx="420" cy="191.2813" fill="#B4A7E5" rx="11" ry="11" style="stroke:#A80036;stroke-width:1.0;"/><path d="M420.9531,187.9219 L420.9531,194.5781 L422.6719,194.5781 Q423.2813,194.5781 423.5469,194.8125 Q423.8125,195.0469 423.8125,195.4375 Q423.8125,195.8125 423.5469,196.0469 Q423.2813,196.2813 422.6719,196.2813 L417.5313,196.2813 Q416.9219,196.2813 416.6563,196.0469 Q416.3906,195.8125 416.3906,195.4219 Q416.3906,195.0469 416.6563,194.8125 Q416.9219,194.5781 417.5313,194.5781 L419.25,194.5781 L419.25,187.9219 L417.5313,187.9219 Q416.9219,187.9219 416.6563,187.6875 Q416.3906,187.4531 416.3906,187.0625 Q416.3906,186.6875 416.6563,186.4531 Q416.9219,186.2188 417.5313,186.2188 L422.6719,186.2188 Q423.2813,186.2188 423.5469,186.4531 Q423.8125,186.6875 423.8125,187.0625 Q423.8125,187.4531 423.5469,187.6875 Q423.2813,187.9219 422.6719,187.9219 L420.9531,187.9219 Z " fill="#000000"/><text fill="#000000" font-family="sans-serif" font-size="12" font-style="italic" lengthAdjust="spacing" textLength="44" x="434" y="196.1914">ISquare</text><line style="stroke:#A80036;stroke-width:1.5;" x1="406" x2="480" y1="207.2813" y2="207.2813"/><line style="stroke:#A80036;stroke-width:1.5;" x1="406" x2="480" y1="215.2813" y2="215.2813"/><ellipse cx="416" cy="226.2813" fill="#84BE84" rx="3" ry="3" style="stroke:#038048;stroke-width:1.0;"/><text fill="#000000" font-family="sans-serif" font-size="11" font-style="italic" lengthAdjust="spacing" textLength="47" x="425" y="230.7002">execute()</text><!--MD5=[5de0e232bac298933147a9f272f92d22]
class hk.edu.polyu.comp.comp3211.monopoly.model.squares.Jail--><rect codeLine="51" fill="#FEFECE" filter="url(#fghglt33vxxm3)" height="61.8359" id="hk.edu.polyu.comp.comp3211.monopoly.model.squares.Jail" style="stroke:#A80036;stroke-width:1.5;" width="73" x="406.5" y="346.7813"/><ellipse cx="431.4" cy="362.7813" fill="#ADD1B2" rx="11" ry="11" style="stroke:#A80036;stroke-width:1.0;"/><path d="M434.1656,358.6563 Q434.3219,358.4375 434.5094,358.3281 Q434.6969,358.2188 434.9156,358.2188 Q435.2906,358.2188 435.525,358.4844 Q435.7594,358.7344 435.7594,359.3438 L435.7594,360.7969 Q435.7594,361.4063 435.525,361.6719 Q435.2906,361.9375 434.9156,361.9375 Q434.5719,361.9375 434.3688,361.7344 Q434.1656,361.5469 434.0563,361.0313 Q434.0094,360.6719 433.8219,360.4844 Q433.4938,360.1094 432.8844,359.8906 Q432.275,359.6719 431.65,359.6719 Q430.8844,359.6719 430.2438,360 Q429.6188,360.3281 429.1188,361.0781 Q428.6344,361.8281 428.6344,362.8594 L428.6344,363.9531 Q428.6344,365.1875 429.525,366.0156 Q430.4156,366.8281 432.0094,366.8281 Q432.9469,366.8281 433.6031,366.5781 Q433.9938,366.4219 434.4156,365.9844 Q434.6813,365.7188 434.8219,365.6406 Q434.9781,365.5625 435.1813,365.5625 Q435.5094,365.5625 435.7594,365.8281 Q436.025,366.0781 436.025,366.4219 Q436.025,366.7656 435.6813,367.1719 Q435.1813,367.75 434.3844,368.0781 Q433.3063,368.5313 432.0094,368.5313 Q430.4938,368.5313 429.2906,367.9063 Q428.3063,367.4063 427.6188,366.3438 Q426.9313,365.2656 426.9313,363.9844 L426.9313,362.8281 Q426.9313,361.5 427.5406,360.3594 Q428.1656,359.2031 429.2594,358.5938 Q430.3531,357.9688 431.5875,357.9688 Q432.3219,357.9688 432.9625,358.1406 Q433.6188,358.2969 434.1656,358.6563 Z " fill="#000000"/><text fill="#000000" font-family="sans-serif" font-size="12" lengthAdjust="spacing" textLength="19" x="447.6" y="367.6914">Jail</text><line style="stroke:#A80036;stroke-width:1.5;" x1="407.5" x2="478.5" y1="378.7813" y2="378.7813"/><line style="stroke:#A80036;stroke-width:1.5;" x1="407.5" x2="478.5" y1="386.7813" y2="386.7813"/><ellipse cx="417.5" cy="397.7813" fill="#84BE84" rx="3" ry="3" style="stroke:#038048;stroke-width:1.0;"/><text fill="#000000" font-family="sans-serif" font-size="11" lengthAdjust="spacing" textLength="47" x="426.5" y="402.2002">execute()</text><!--MD5=[7a1b9b3d50fa56af4a7f6e3eeb477be1]
class hk.edu.polyu.comp.comp3211.monopoly.model.squares.Oops--><rect codeLine="62" fill="#FEFECE" filter="url(#fghglt33vxxm3)" height="61.8359" id="hk.edu.polyu.comp.comp3211.monopoly.model.squares.Oops" style="stroke:#A80036;stroke-width:1.5;" width="73" x="514.5" y="346.7813"/><ellipse cx="534.45" cy="362.7813" fill="#ADD1B2" rx="11" ry="11" style="stroke:#A80036;stroke-width:1.0;"/><path d="M537.2156,358.6563 Q537.3719,358.4375 537.5594,358.3281 Q537.7469,358.2188 537.9656,358.2188 Q538.3406,358.2188 538.575,358.4844 Q538.8094,358.7344 538.8094,359.3438 L538.8094,360.7969 Q538.8094,361.4063 538.575,361.6719 Q538.3406,361.9375 537.9656,361.9375 Q537.6219,361.9375 537.4188,361.7344 Q537.2156,361.5469 537.1063,361.0313 Q537.0594,360.6719 536.8719,360.4844 Q536.5438,360.1094 535.9344,359.8906 Q535.325,359.6719 534.7,359.6719 Q533.9344,359.6719 533.2938,360 Q532.6688,360.3281 532.1688,361.0781 Q531.6844,361.8281 531.6844,362.8594 L531.6844,363.9531 Q531.6844,365.1875 532.575,366.0156 Q533.4656,366.8281 535.0594,366.8281 Q535.9969,366.8281 536.6531,366.5781 Q537.0438,366.4219 537.4656,365.9844 Q537.7313,365.7188 537.8719,365.6406 Q538.0281,365.5625 538.2313,365.5625 Q538.5594,365.5625 538.8094,365.8281 Q539.075,366.0781 539.075,366.4219 Q539.075,366.7656 538.7313,367.1719 Q538.2313,367.75 537.4344,368.0781 Q536.3563,368.5313 535.0594,368.5313 Q533.5438,368.5313 532.3406,367.9063 Q531.3563,367.4063 530.6688,366.3438 Q529.9813,365.2656 529.9813,363.9844 L529.9813,362.8281 Q529.9813,361.5 530.5906,360.3594 Q531.2156,359.2031 532.3094,358.5938 Q533.4031,357.9688 534.6375,357.9688 Q535.3719,357.9688 536.0125,358.1406 Q536.6688,358.2969 537.2156,358.6563 Z " fill="#000000"/><text fill="#000000" font-family="sans-serif" font-size="12" lengthAdjust="spacing" textLength="30" x="549.55" y="367.6914">Oops</text><line style="stroke:#A80036;stroke-width:1.5;" x1="515.5" x2="586.5" y1="378.7813" y2="378.7813"/><line style="stroke:#A80036;stroke-width:1.5;" x1="515.5" x2="586.5" y1="386.7813" y2="386.7813"/><ellipse cx="525.5" cy="397.7813" fill="#84BE84" rx="3" ry="3" style="stroke:#038048;stroke-width:1.0;"/><text fill="#000000" font-family="sans-serif" font-size="11" lengthAdjust="spacing" textLength="47" x="534.5" y="402.2002">execute()</text><!--MD5=[a051352c35eebf593bc7512ad3333030]
class hk.edu.polyu.comp.comp3211.monopoly.model.squares.Property--><rect codeLine="73" fill="#FEFECE" filter="url(#fghglt33vxxm3)" height="158.6875" id="hk.edu.polyu.comp.comp3211.monopoly.model.squares.Property" style="stroke:#A80036;stroke-width:1.5;" width="89" x="622.5" y="298.2813"/><ellipse cx="642.9" cy="314.2813" fill="#ADD1B2" rx="11" ry="11" style="stroke:#A80036;stroke-width:1.0;"/><path d="M645.6656,310.1563 Q645.8219,309.9375 646.0094,309.8281 Q646.1969,309.7188 646.4156,309.7188 Q646.7906,309.7188 647.025,309.9844 Q647.2594,310.2344 647.2594,310.8438 L647.2594,312.2969 Q647.2594,312.9063 647.025,313.1719 Q646.7906,313.4375 646.4156,313.4375 Q646.0719,313.4375 645.8688,313.2344 Q645.6656,313.0469 645.5563,312.5313 Q645.5094,312.1719 645.3219,311.9844 Q644.9938,311.6094 644.3844,311.3906 Q643.775,311.1719 643.15,311.1719 Q642.3844,311.1719 641.7438,311.5 Q641.1188,311.8281 640.6188,312.5781 Q640.1344,313.3281 640.1344,314.3594 L640.1344,315.4531 Q640.1344,316.6875 641.025,317.5156 Q641.9156,318.3281 643.5094,318.3281 Q644.4469,318.3281 645.1031,318.0781 Q645.4938,317.9219 645.9156,317.4844 Q646.1813,317.2188 646.3219,317.1406 Q646.4781,317.0625 646.6813,317.0625 Q647.0094,317.0625 647.2594,317.3281 Q647.525,317.5781 647.525,317.9219 Q647.525,318.2656 647.1813,318.6719 Q646.6813,319.25 645.8844,319.5781 Q644.8063,320.0313 643.5094,320.0313 Q641.9938,320.0313 640.7906,319.4063 Q639.8063,318.9063 639.1188,317.8438 Q638.4313,316.7656 638.4313,315.4844 L638.4313,314.3281 Q638.4313,313 639.0406,311.8594 Q639.6656,310.7031 640.7594,310.0938 Q641.8531,309.4688 643.0875,309.4688 Q643.8219,309.4688 644.4625,309.6406 Q645.1188,309.7969 645.6656,310.1563 Z " fill="#000000"/><text fill="#000000" font-family="sans-serif" font-size="12" lengthAdjust="spacing" textLength="45" x="658.1" y="319.1914">Property</text><line style="stroke:#A80036;stroke-width:1.5;" x1="623.5" x2="710.5" y1="330.2813" y2="330.2813"/><rect fill="none" height="6" style="stroke:#C82930;stroke-width:1.0;" width="6" x="630.5" y="338.2813"/><text fill="#000000" font-family="sans-serif" font-size="11" lengthAdjust="spacing" textLength="63" x="642.5" y="345.7002">name : String</text><rect fill="none" height="6" style="stroke:#C82930;stroke-width:1.0;" width="6" x="630.5" y="352.1172"/><text fill="#000000" font-family="sans-serif" font-size="11" lengthAdjust="spacing" textLength="44" x="642.5" y="359.5361">price : int</text><rect fill="none" height="6" style="stroke:#C82930;stroke-width:1.0;" width="6" x="630.5" y="365.9531"/><text fill="#000000" font-family="sans-serif" font-size="11" lengthAdjust="spacing" textLength="39" x="642.5" y="373.3721">rent : int</text><line style="stroke:#A80036;stroke-width:1.5;" x1="623.5" x2="710.5" y1="379.7891" y2="379.7891"/><ellipse cx="633.5" cy="390.7891" fill="#84BE84" rx="3" ry="3" style="stroke:#038048;stroke-width:1.0;"/><text fill="#000000" font-family="sans-serif" font-size="11" lengthAdjust="spacing" textLength="49" x="642.5" y="395.208">Property()</text><ellipse cx="633.5" cy="404.625" fill="#84BE84" rx="3" ry="3" style="stroke:#038048;stroke-width:1.0;"/><text fill="#000000" font-family="sans-serif" font-size="11" lengthAdjust="spacing" textLength="47" x="642.5" y="409.0439">execute()</text><ellipse cx="633.5" cy="418.4609" fill="#84BE84" rx="3" ry="3" style="stroke:#038048;stroke-width:1.0;"/><text fill="#000000" font-family="sans-serif" font-size="11" lengthAdjust="spacing" textLength="50" x="642.5" y="422.8799">getName()</text><ellipse cx="633.5" cy="432.2969" fill="#84BE84" rx="3" ry="3" style="stroke:#038048;stroke-width:1.0;"/><text fill="#000000" font-family="sans-serif" font-size="11" lengthAdjust="spacing" textLength="57" x="642.5" y="436.7158">getOwner()</text><ellipse cx="633.5" cy="446.1328" fill="#84BE84" rx="3" ry="3" style="stroke:#038048;stroke-width:1.0;"/><text fill="#000000" font-family="sans-serif" font-size="11" lengthAdjust="spacing" textLength="57" x="642.5" y="450.5518">setOwner()</text><!--MD5=[ae364a480eca9bce81cf95d7db7ab2e6]
class hk.edu.polyu.comp.comp3211.monopoly.model.squares.Tax--><rect codeLine="91" fill="#FEFECE" filter="url(#fghglt33vxxm3)" height="61.8359" id="hk.edu.polyu.comp.comp3211.monopoly.model.squares.Tax" style="stroke:#A80036;stroke-width:1.5;" width="73" x="746.5" y="346.7813"/><ellipse cx="771.4" cy="362.7813" fill="#ADD1B2" rx="11" ry="11" style="stroke:#A80036;stroke-width:1.0;"/><path d="M774.1656,358.6563 Q774.3219,358.4375 774.5094,358.3281 Q774.6969,358.2188 774.9156,358.2188 Q775.2906,358.2188 775.525,358.4844 Q775.7594,358.7344 775.7594,359.3438 L775.7594,360.7969 Q775.7594,361.4063 775.525,361.6719 Q775.2906,361.9375 774.9156,361.9375 Q774.5719,361.9375 774.3688,361.7344 Q774.1656,361.5469 774.0563,361.0313 Q774.0094,360.6719 773.8219,360.4844 Q773.4938,360.1094 772.8844,359.8906 Q772.275,359.6719 771.65,359.6719 Q770.8844,359.6719 770.2438,360 Q769.6188,360.3281 769.1188,361.0781 Q768.6344,361.8281 768.6344,362.8594 L768.6344,363.9531 Q768.6344,365.1875 769.525,366.0156 Q770.4156,366.8281 772.0094,366.8281 Q772.9469,366.8281 773.6031,366.5781 Q773.9938,366.4219 774.4156,365.9844 Q774.6813,365.7188 774.8219,365.6406 Q774.9781,365.5625 775.1813,365.5625 Q775.5094,365.5625 775.7594,365.8281 Q776.025,366.0781 776.025,366.4219 Q776.025,366.7656 775.6813,367.1719 Q775.1813,367.75 774.3844,368.0781 Q773.3063,368.5313 772.0094,368.5313 Q770.4938,368.5313 769.2906,367.9063 Q768.3063,367.4063 767.6188,366.3438 Q766.9313,365.2656 766.9313,363.9844 L766.9313,362.8281 Q766.9313,361.5 767.5406,360.3594 Q768.1656,359.2031 769.2594,358.5938 Q770.3531,357.9688 771.5875,357.9688 Q772.3219,357.9688 772.9625,358.1406 Q773.6188,358.2969 774.1656,358.6563 Z " fill="#000000"/><text fill="#000000" font-family="sans-serif" font-size="12" lengthAdjust="spacing" textLength="19" x="787.6" y="367.6914">Tax</text><line style="stroke:#A80036;stroke-width:1.5;" x1="747.5" x2="818.5" y1="378.7813" y2="378.7813"/><line style="stroke:#A80036;stroke-width:1.5;" x1="747.5" x2="818.5" y1="386.7813" y2="386.7813"/><ellipse cx="757.5" cy="397.7813" fill="#84BE84" rx="3" ry="3" style="stroke:#038048;stroke-width:1.0;"/><text fill="#000000" font-family="sans-serif" font-size="11" lengthAdjust="spacing" textLength="47" x="766.5" y="402.2002">execute()</text><!--MD5=[3f9e0c9544f2f198ea0f48fa10a2ac89]
reverse link hk.edu.polyu.comp.comp3211.monopoly.model.squares.ISquare to hk.edu.polyu.comp.comp3211.monopoly.model.squares.Chance--><path codeLine="99" d="M384.65,216.0013 C326.35,227.0813 236.49,250.7713 173,298.2813 C156.08,310.9413 142.41,330.3613 132.93,346.7113 " fill="none" id="hk.edu.polyu.comp.comp3211.monopoly.model.squares.ISquare-backto-hk.edu.polyu.comp.comp3211.monopoly.model.squares.Chance" style="stroke:#A80036;stroke-width:1.0;stroke-dasharray:7.0,7.0;"/><polygon fill="none" points="383.68,209.0713,404.59,212.4713,386.12,222.8513,383.68,209.0713" style="stroke:#A80036;stroke-width:1.0;"/><!--MD5=[a88b4c060375697145969f5cf167bf63]
reverse link hk.edu.polyu.comp.comp3211.monopoly.model.squares.ISquare to hk.edu.polyu.comp.comp3211.monopoly.model.squares.Free--><path codeLine="100" d="M386.4,231.1713 C353.25,246.9813 311.97,270.0013 281,298.2813 C265.85,312.1113 252.71,330.9613 243.18,346.7213 " fill="none" id="hk.edu.polyu.comp.comp3211.monopoly.model.squares.ISquare-backto-hk.edu.polyu.comp.comp3211.monopoly.model.squares.Free" style="stroke:#A80036;stroke-width:1.0;stroke-dasharray:7.0,7.0;"/><polygon fill="none" points="383.73,224.6913,404.83,222.7013,389.57,237.4113,383.73,224.6913" style="stroke:#A80036;stroke-width:1.0;"/><!--MD5=[0e7ddbec490d10e9543d6720b4ac7479]
reverse link hk.edu.polyu.comp.comp3211.monopoly.model.squares.ISquare to hk.edu.polyu.comp.comp3211.monopoly.model.squares.Go--><path codeLine="101" d="M412.72,254.8012 C393.94,284.2813 370.37,321.2713 354.14,346.7413 " fill="none" id="hk.edu.polyu.comp.comp3211.monopoly.model.squares.ISquare-backto-hk.edu.polyu.comp.comp3211.monopoly.model.squares.Go" style="stroke:#A80036;stroke-width:1.0;stroke-dasharray:7.0,7.0;"/><polygon fill="none" points="407.04,250.6913,423.69,237.5813,418.85,258.2113,407.04,250.6913" style="stroke:#A80036;stroke-width:1.0;"/><!--MD5=[ec2e7d9045f068a27e2387f80d5e6321]
reverse link hk.edu.polyu.comp.comp3211.monopoly.model.squares.ISquare to hk.edu.polyu.comp.comp3211.monopoly.model.squares.Jail--><path codeLine="102" d="M443,257.7513 C443,286.7113 443,322.1113 443,346.7413 " fill="none" id="hk.edu.polyu.comp.comp3211.monopoly.model.squares.ISquare-backto-hk.edu.polyu.comp.comp3211.monopoly.model.squares.Jail" style="stroke:#A80036;stroke-width:1.0;stroke-dasharray:7.0,7.0;"/><polygon fill="none" points="436,257.5813,443,237.5813,450,257.5813,436,257.5813" style="stroke:#A80036;stroke-width:1.0;"/><!--MD5=[a987d60dda8add77ba11a1aea2baef2c]
reverse link hk.edu.polyu.comp.comp3211.monopoly.model.squares.ISquare to hk.edu.polyu.comp.comp3211.monopoly.model.squares.Oops--><path codeLine="103" d="M473.28,254.8012 C492.06,284.2813 515.63,321.2713 531.86,346.7413 " fill="none" id="hk.edu.polyu.comp.comp3211.monopoly.model.squares.ISquare-backto-hk.edu.polyu.comp.comp3211.monopoly.model.squares.Oops" style="stroke:#A80036;stroke-width:1.0;stroke-dasharray:7.0,7.0;"/><polygon fill="none" points="467.15,258.2113,462.31,237.5813,478.96,250.6913,467.15,258.2113" style="stroke:#A80036;stroke-width:1.0;"/><!--MD5=[b9321f9297dc25584b074c56ca9dee5d]
reverse link hk.edu.polyu.comp.comp3211.monopoly.model.squares.ISquare to hk.edu.polyu.comp.comp3211.monopoly.model.squares.Property--><path codeLine="104" d="M499.58,232.2313 C532.38,248.3012 573.32,271.2213 605,298.2813 C610.94,303.3613 616.71,309.0713 622.18,315.0513 " fill="none" id="hk.edu.polyu.comp.comp3211.monopoly.model.squares.ISquare-backto-hk.edu.polyu.comp.comp3211.monopoly.model.squares.Property" style="stroke:#A80036;stroke-width:1.0;stroke-dasharray:7.0,7.0;"/><polygon fill="none" points="496.41,238.4813,481.34,223.5813,502.41,225.8313,496.41,238.4813" style="stroke:#A80036;stroke-width:1.0;"/><!--MD5=[2b5fb487cc719588df7336369b37761e]
reverse link hk.edu.polyu.comp.comp3211.monopoly.model.squares.Property to hk.edu.polyu.comp.comp3211.monopoly.model.Player--><path codeLine="105" d="M667,470.6313 C667,495.3513 667,519.9713 667,537.1313 " fill="none" id="hk.edu.polyu.comp.comp3211.monopoly.model.squares.Property-backto-hk.edu.polyu.comp.comp3211.monopoly.model.Player" style="stroke:#A80036;stroke-width:1.0;"/><polygon fill="#FFFFFF" points="667,457.3313,663,463.3313,667,469.3313,671,463.3313,667,457.3313" style="stroke:#A80036;stroke-width:1.0;"/><text fill="#000000" font-family="sans-serif" font-size="13" lengthAdjust="spacing" textLength="34" x="668" y="503.7764">owner</text><!--MD5=[ecc5df0a265eaee7659f81336151fe8e]
reverse link hk.edu.polyu.comp.comp3211.monopoly.model.squares.ISquare to hk.edu.polyu.comp.comp3211.monopoly.model.squares.Tax--><path codeLine="106" d="M501.11,214.4413 C562.76,224.4613 660.53,247.5013 729,298.2813 C745.87,310.7913 759.3,330.2113 768.54,346.6013 " fill="none" id="hk.edu.polyu.comp.comp3211.monopoly.model.squares.ISquare-backto-hk.edu.polyu.comp.comp3211.monopoly.model.squares.Tax" style="stroke:#A80036;stroke-width:1.0;stroke-dasharray:7.0,7.0;"/><polygon fill="none" points="500.04,221.3612,481.3,211.4713,502.12,207.5113,500.04,221.3612" style="stroke:#A80036;stroke-width:1.0;"/><text fill="#888888" font-family="sans-serif" font-size="10" lengthAdjust="spacing" textLength="0" x="888" y="641.6621"/><text fill="#888888" font-family="sans-serif" font-size="10" lengthAdjust="spacing" textLength="0" x="888" y="654.2402"/><text fill="#888888" font-family="sans-serif" font-size="10" lengthAdjust="spacing" textLength="392" x="496" y="666.8184">COMP3211 Software Engineering Course Project: Monopoly, 2021 Fall</text><text fill="#888888" font-family="sans-serif" font-size="10" lengthAdjust="spacing" textLength="394" x="494" y="679.3965">by Group 22: MAN Furui, LIU Sicheng, WANG Meng, XING Shiji</text><!--MD5=[54d7d58c19e449792d8ac7dc99099c8b]
@startuml

title __SQUARES's Class Diagram__\n

  namespace hk.edu.polyu.comp.comp3211.monopoly {
    namespace model {
      namespace squares {
        class hk.edu.polyu.comp.comp3211.monopoly.model.squares.Chance {
            + execute()
        }
      }
    }
  }
  

  namespace hk.edu.polyu.comp.comp3211.monopoly {
    namespace model {
      namespace squares {
        class hk.edu.polyu.comp.comp3211.monopoly.model.squares.Free {
            + execute()
        }
      }
    }
  }
  

  namespace hk.edu.polyu.comp.comp3211.monopoly {
    namespace model {
      namespace squares {
        class hk.edu.polyu.comp.comp3211.monopoly.model.squares.Go {
            + execute()
        }
      }
    }
  }
  

  namespace hk.edu.polyu.comp.comp3211.monopoly {
    namespace model {
      namespace squares {
        interface hk.edu.polyu.comp.comp3211.monopoly.model.squares.ISquare {
            {abstract} + execute()
        }
      }
    }
  }
  

  namespace hk.edu.polyu.comp.comp3211.monopoly {
    namespace model {
      namespace squares {
        class hk.edu.polyu.comp.comp3211.monopoly.model.squares.Jail {
            + execute()
        }
      }
    }
  }
  

  namespace hk.edu.polyu.comp.comp3211.monopoly {
    namespace model {
      namespace squares {
        class hk.edu.polyu.comp.comp3211.monopoly.model.squares.Oops {
            + execute()
        }
      }
    }
  }
  

  namespace hk.edu.polyu.comp.comp3211.monopoly {
    namespace model {
      namespace squares {
        class hk.edu.polyu.comp.comp3211.monopoly.model.squares.Property {
            - name : String
            - price : int
            - rent : int
            + Property()
            + execute()
            + getName()
            + getOwner()
            + setOwner()
        }
      }
    }
  }
  

  namespace hk.edu.polyu.comp.comp3211.monopoly {
    namespace model {
      namespace squares {
        class hk.edu.polyu.comp.comp3211.monopoly.model.squares.Tax {
            + execute()
        }
      }
    }
  }
  

  hk.edu.polyu.comp.comp3211.monopoly.model.squares.Chance .up.|> hk.edu.polyu.comp.comp3211.monopoly.model.squares.ISquare
  hk.edu.polyu.comp.comp3211.monopoly.model.squares.Free .up.|> hk.edu.polyu.comp.comp3211.monopoly.model.squares.ISquare
  hk.edu.polyu.comp.comp3211.monopoly.model.squares.Go .up.|> hk.edu.polyu.comp.comp3211.monopoly.model.squares.ISquare
  hk.edu.polyu.comp.comp3211.monopoly.model.squares.Jail .up.|> hk.edu.polyu.comp.comp3211.monopoly.model.squares.ISquare
  hk.edu.polyu.comp.comp3211.monopoly.model.squares.Oops .up.|> hk.edu.polyu.comp.comp3211.monopoly.model.squares.ISquare
  hk.edu.polyu.comp.comp3211.monopoly.model.squares.Property .up.|> hk.edu.polyu.comp.comp3211.monopoly.model.squares.ISquare
  hk.edu.polyu.comp.comp3211.monopoly.model.squares.Property o- - hk.edu.polyu.comp.comp3211.monopoly.model.Player : owner
  hk.edu.polyu.comp.comp3211.monopoly.model.squares.Tax .up.|> hk.edu.polyu.comp.comp3211.monopoly.model.squares.ISquare


right footer


COMP3211 Software Engineering Course Project: Monopoly, 2021 Fall
by Group 22: MAN Furui, LIU Sicheng, WANG Meng, XING Shiji
endfooter

@enduml

PlantUML version 1.2021.12(Wed Oct 06 00:01:58 GMT+08:00 2021)
(GPL source distribution)
Java Runtime: Java(TM) SE Runtime Environment
JVM: Java HotSpot(TM) 64-Bit Server VM
Default Encoding: Cp1252
Language: zh
Country: CN
--></g></svg>