<?xml version="1.0" encoding="UTF-8" standalone="no"?><svg xmlns="http://www.w3.org/2000/svg" xmlns:xlink="http://www.w3.org/1999/xlink" contentScriptType="application/ecmascript" contentStyleType="text/css" height="558px" preserveAspectRatio="none" style="width:402px;height:558px;background:#FFFFFF;" version="1.1" viewBox="0 0 402 558" width="402px" zoomAndPan="magnify"><defs><filter height="300%" id="fnhc1k2ji2zbw" width="300%" x="-1" y="-1"><feGaussianBlur result="blurOut" stdDeviation="2.0"/><feColorMatrix in="blurOut" result="blurOut2" type="matrix" values="0 0 0 0 0 0 0 0 0 0 0 0 0 0 0 0 0 0 .4 0"/><feOffset dx="4.0" dy="4.0" in="blurOut2" result="blurOut3"/><feBlend in="SourceGraphic" in2="blurOut3" mode="normal"/></filter></defs><g><text fill="#000000" font-family="sans-serif" font-size="18" lengthAdjust="spacing" text-decoration="underline" textLength="198" x="98" y="18.6855">MODEL's Class Diagram</text><text fill="#000000" font-family="sans-serif" font-size="18" lengthAdjust="spacing" textLength="0" x="199.5" y="41.3262"/><!--MD5=[5508ff9bbedac472b1f23f1d1e06e5c5]
cluster hk.edu.polyu.comp.comp3211.monopoly--><polygon fill="#FFFFFF" filter="url(#fnhc1k2ji2zbw)" points="20.5,51.2813,304.5,51.2813,311.5,74.8906,385.5,74.8906,385.5,496.2813,20.5,496.2813,20.5,51.2813" style="stroke:#000000;stroke-width:1.5;"/><line style="stroke:#000000;stroke-width:1.5;" x1="20.5" x2="311.5" y1="74.8906" y2="74.8906"/><text fill="#000000" font-family="sans-serif" font-size="14" font-weight="bold" lengthAdjust="spacing" textLength="278" x="24.5" y="67.8145">hk.edu.polyu.comp.comp3211.monopoly</text><!--MD5=[e0d38505e61bf288b3ba973930295e9b]
cluster hk.edu.polyu.comp.comp3211.monopoly.model--><polygon fill="#FFFFFF" filter="url(#fnhc1k2ji2zbw)" points="44.5,95.2813,93.5,95.2813,100.5,118.8906,361.5,118.8906,361.5,472.2813,44.5,472.2813,44.5,95.2813" style="stroke:#000000;stroke-width:1.5;"/><line style="stroke:#000000;stroke-width:1.5;" x1="44.5" x2="100.5" y1="118.8906" y2="118.8906"/><text fill="#000000" font-family="sans-serif" font-size="14" font-weight="bold" lengthAdjust="spacing" textLength="43" x="48.5" y="111.8145">model</text><!--MD5=[fb9a7c962297ff12a4d5b142d4389831]
class hk.edu.polyu.comp.comp3211.monopoly.model.Board--><rect codeLine="6" fill="#FEFECE" filter="url(#fnhc1k2ji2zbw)" height="227.8672" id="hk.edu.polyu.comp.comp3211.monopoly.model.Board" style="stroke:#A80036;stroke-width:1.5;" width="118" x="227.5" y="179.7813"/><ellipse cx="266.35" cy="195.7813" fill="#ADD1B2" rx="11" ry="11" style="stroke:#A80036;stroke-width:1.0;"/><path d="M269.1156,191.6563 Q269.2719,191.4375 269.4594,191.3281 Q269.6469,191.2188 269.8656,191.2188 Q270.2406,191.2188 270.475,191.4844 Q270.7094,191.7344 270.7094,192.3438 L270.7094,193.7969 Q270.7094,194.4063 270.475,194.6719 Q270.2406,194.9375 269.8656,194.9375 Q269.5219,194.9375 269.3188,194.7344 Q269.1156,194.5469 269.0063,194.0313 Q268.9594,193.6719 268.7719,193.4844 Q268.4438,193.1094 267.8344,192.8906 Q267.225,192.6719 266.6,192.6719 Q265.8344,192.6719 265.1938,193 Q264.5688,193.3281 264.0688,194.0781 Q263.5844,194.8281 263.5844,195.8594 L263.5844,196.9531 Q263.5844,198.1875 264.475,199.0156 Q265.3656,199.8281 266.9594,199.8281 Q267.8969,199.8281 268.5531,199.5781 Q268.9438,199.4219 269.3656,198.9844 Q269.6313,198.7188 269.7719,198.6406 Q269.9281,198.5625 270.1313,198.5625 Q270.4594,198.5625 270.7094,198.8281 Q270.975,199.0781 270.975,199.4219 Q270.975,199.7656 270.6313,200.1719 Q270.1313,200.75 269.3344,201.0781 Q268.2563,201.5313 266.9594,201.5313 Q265.4438,201.5313 264.2406,200.9063 Q263.2563,200.4063 262.5688,199.3438 Q261.8813,198.2656 261.8813,196.9844 L261.8813,195.8281 Q261.8813,194.5 262.4906,193.3594 Q263.1156,192.2031 264.2094,191.5938 Q265.3031,190.9688 266.5375,190.9688 Q267.2719,190.9688 267.9125,191.1406 Q268.5688,191.2969 269.1156,191.6563 Z " fill="#000000"/><text fill="#000000" font-family="sans-serif" font-size="12" lengthAdjust="spacing" textLength="33" x="285.65" y="200.6914">Board</text><line style="stroke:#A80036;stroke-width:1.5;" x1="228.5" x2="344.5" y1="211.7813" y2="211.7813"/><rect fill="none" height="6" style="stroke:#C82930;stroke-width:1.0;" width="6" x="235.5" y="219.7813"/><text fill="#000000" font-family="sans-serif" font-size="11" lengthAdjust="spacing" textLength="58" x="247.5" y="227.2002">p_index : int</text><rect fill="none" height="6" style="stroke:#C82930;stroke-width:1.0;" width="6" x="235.5" y="233.6172"/><text fill="#000000" font-family="sans-serif" font-size="11" lengthAdjust="spacing" textLength="81" x="247.5" y="241.0361">players : Player[]</text><rect fill="none" height="6" style="stroke:#C82930;stroke-width:1.0;" width="6" x="235.5" y="247.4531"/><text fill="#000000" font-family="sans-serif" font-size="11" lengthAdjust="spacing" textLength="48" x="247.5" y="254.8721">round : int</text><rect fill="none" height="6" style="stroke:#C82930;stroke-width:1.0;" width="6" x="235.5" y="261.2891"/><text fill="#000000" font-family="sans-serif" font-size="11" lengthAdjust="spacing" textLength="92" x="247.5" y="268.708">squares : ISquare[]</text><line style="stroke:#A80036;stroke-width:1.5;" x1="228.5" x2="344.5" y1="275.125" y2="275.125"/><ellipse cx="238.5" cy="286.125" fill="#84BE84" rx="3" ry="3" style="stroke:#038048;stroke-width:1.0;"/><text fill="#000000" font-family="sans-serif" font-size="11" lengthAdjust="spacing" textLength="37" x="247.5" y="290.5439">Board()</text><ellipse cx="238.5" cy="299.9609" fill="#84BE84" rx="3" ry="3" style="stroke:#038048;stroke-width:1.0;"/><text fill="#000000" font-family="sans-serif" font-size="11" lengthAdjust="spacing" textLength="61" x="247.5" y="304.3799">getP_index()</text><ellipse cx="238.5" cy="313.7969" fill="#84BE84" rx="3" ry="3" style="stroke:#038048;stroke-width:1.0;"/><text fill="#000000" font-family="sans-serif" font-size="11" lengthAdjust="spacing" textLength="59" x="247.5" y="318.2158">getPlayers()</text><ellipse cx="238.5" cy="327.6328" fill="#84BE84" rx="3" ry="3" style="stroke:#038048;stroke-width:1.0;"/><text fill="#000000" font-family="sans-serif" font-size="11" lengthAdjust="spacing" textLength="54" x="247.5" y="332.0518">getRound()</text><ellipse cx="238.5" cy="341.4688" fill="#84BE84" rx="3" ry="3" style="stroke:#038048;stroke-width:1.0;"/><text fill="#000000" font-family="sans-serif" font-size="11" lengthAdjust="spacing" textLength="64" x="247.5" y="345.8877">getSquares()</text><ellipse cx="238.5" cy="355.3047" fill="#84BE84" rx="3" ry="3" style="stroke:#038048;stroke-width:1.0;"/><text fill="#000000" font-family="sans-serif" font-size="11" lengthAdjust="spacing" textLength="28" x="247.5" y="359.7236">load()</text><ellipse cx="238.5" cy="369.1406" fill="#84BE84" rx="3" ry="3" style="stroke:#038048;stroke-width:1.0;"/><text fill="#000000" font-family="sans-serif" font-size="11" lengthAdjust="spacing" textLength="32" x="247.5" y="373.5596">save()</text><ellipse cx="238.5" cy="382.9766" fill="#84BE84" rx="3" ry="3" style="stroke:#038048;stroke-width:1.0;"/><text fill="#000000" font-family="sans-serif" font-size="11" lengthAdjust="spacing" textLength="61" x="247.5" y="387.3955">setP_index()</text><ellipse cx="238.5" cy="396.8125" fill="#84BE84" rx="3" ry="3" style="stroke:#038048;stroke-width:1.0;"/><text fill="#000000" font-family="sans-serif" font-size="11" lengthAdjust="spacing" textLength="54" x="247.5" y="401.2314">setRound()</text><!--MD5=[86715f2845c48b1c9eaa0e0dc90ca865]
class hk.edu.polyu.comp.comp3211.monopoly.model.Player--><rect codeLine="27" fill="#FEFECE" filter="url(#fnhc1k2ji2zbw)" height="324.7188" id="hk.edu.polyu.comp.comp3211.monopoly.model.Player" style="stroke:#A80036;stroke-width:1.5;" width="131" x="61" y="131.2813"/><ellipse cx="105.25" cy="147.2813" fill="#ADD1B2" rx="11" ry="11" style="stroke:#A80036;stroke-width:1.0;"/><path d="M108.0156,143.1563 Q108.1719,142.9375 108.3594,142.8281 Q108.5469,142.7188 108.7656,142.7188 Q109.1406,142.7188 109.375,142.9844 Q109.6094,143.2344 109.6094,143.8438 L109.6094,145.2969 Q109.6094,145.9063 109.375,146.1719 Q109.1406,146.4375 108.7656,146.4375 Q108.4219,146.4375 108.2188,146.2344 Q108.0156,146.0469 107.9063,145.5313 Q107.8594,145.1719 107.6719,144.9844 Q107.3438,144.6094 106.7344,144.3906 Q106.125,144.1719 105.5,144.1719 Q104.7344,144.1719 104.0938,144.5 Q103.4688,144.8281 102.9688,145.5781 Q102.4844,146.3281 102.4844,147.3594 L102.4844,148.4531 Q102.4844,149.6875 103.375,150.5156 Q104.2656,151.3281 105.8594,151.3281 Q106.7969,151.3281 107.4531,151.0781 Q107.8438,150.9219 108.2656,150.4844 Q108.5313,150.2188 108.6719,150.1406 Q108.8281,150.0625 109.0313,150.0625 Q109.3594,150.0625 109.6094,150.3281 Q109.875,150.5781 109.875,150.9219 Q109.875,151.2656 109.5313,151.6719 Q109.0313,152.25 108.2344,152.5781 Q107.1563,153.0313 105.8594,153.0313 Q104.3438,153.0313 103.1406,152.4063 Q102.1563,151.9063 101.4688,150.8438 Q100.7813,149.7656 100.7813,148.4844 L100.7813,147.3281 Q100.7813,146 101.3906,144.8594 Q102.0156,143.7031 103.1094,143.0938 Q104.2031,142.4688 105.4375,142.4688 Q106.1719,142.4688 106.8125,142.6406 Q107.4688,142.7969 108.0156,143.1563 Z " fill="#000000"/><text fill="#000000" font-family="sans-serif" font-size="12" lengthAdjust="spacing" textLength="34" x="125.75" y="152.1914">Player</text><line style="stroke:#A80036;stroke-width:1.5;" x1="62" x2="191" y1="163.2813" y2="163.2813"/><rect fill="none" height="6" style="stroke:#C82930;stroke-width:1.0;" width="6" x="69" y="171.2813"/><text fill="#000000" font-family="sans-serif" font-size="11" lengthAdjust="spacing" textLength="101" x="81" y="178.7002">bankrupted : boolean</text><rect fill="none" height="6" style="stroke:#C82930;stroke-width:1.0;" width="6" x="69" y="185.1172"/><text fill="#000000" font-family="sans-serif" font-size="11" lengthAdjust="spacing" textLength="43" x="81" y="192.5361">inJail : int</text><rect fill="none" height="6" style="stroke:#C82930;stroke-width:1.0;" width="6" x="69" y="198.9531"/><text fill="#000000" font-family="sans-serif" font-size="11" lengthAdjust="spacing" textLength="52" x="81" y="206.3721">money : int</text><rect fill="none" height="6" style="stroke:#C82930;stroke-width:1.0;" width="6" x="69" y="212.7891"/><text fill="#000000" font-family="sans-serif" font-size="11" lengthAdjust="spacing" textLength="63" x="81" y="220.208">name : String</text><rect fill="none" height="6" style="stroke:#C82930;stroke-width:1.0;" width="6" x="69" y="226.625"/><text fill="#000000" font-family="sans-serif" font-size="11" lengthAdjust="spacing" textLength="57" x="81" y="234.0439">position : int</text><rect fill="none" height="6" style="stroke:#C82930;stroke-width:1.0;" width="6" x="69" y="240.4609"/><text fill="#000000" font-family="sans-serif" font-size="11" lengthAdjust="spacing" textLength="105" x="81" y="247.8799">properties : Property[]</text><line style="stroke:#A80036;stroke-width:1.5;" x1="62" x2="191" y1="254.2969" y2="254.2969"/><ellipse cx="72" cy="265.2969" fill="#84BE84" rx="3" ry="3" style="stroke:#038048;stroke-width:1.0;"/><text fill="#000000" font-family="sans-serif" font-size="11" lengthAdjust="spacing" textLength="38" x="81" y="269.7158">Player()</text><ellipse cx="72" cy="279.1328" fill="#84BE84" rx="3" ry="3" style="stroke:#038048;stroke-width:1.0;"/><text fill="#000000" font-family="sans-serif" font-size="11" lengthAdjust="spacing" textLength="50" x="81" y="283.5518">bankrupt()</text><ellipse cx="72" cy="292.9688" fill="#84BE84" rx="3" ry="3" style="stroke:#038048;stroke-width:1.0;"/><text fill="#000000" font-family="sans-serif" font-size="11" lengthAdjust="spacing" textLength="46" x="81" y="297.3877">getInJail()</text><ellipse cx="72" cy="306.8047" fill="#84BE84" rx="3" ry="3" style="stroke:#038048;stroke-width:1.0;"/><text fill="#000000" font-family="sans-serif" font-size="11" lengthAdjust="spacing" textLength="55" x="81" y="311.2236">getMoney()</text><ellipse cx="72" cy="320.6406" fill="#84BE84" rx="3" ry="3" style="stroke:#038048;stroke-width:1.0;"/><text fill="#000000" font-family="sans-serif" font-size="11" lengthAdjust="spacing" textLength="50" x="81" y="325.0596">getName()</text><ellipse cx="72" cy="334.4766" fill="#84BE84" rx="3" ry="3" style="stroke:#038048;stroke-width:1.0;"/><text fill="#000000" font-family="sans-serif" font-size="11" lengthAdjust="spacing" textLength="60" x="81" y="338.8955">getPosition()</text><ellipse cx="72" cy="348.3125" fill="#84BE84" rx="3" ry="3" style="stroke:#038048;stroke-width:1.0;"/><text fill="#000000" font-family="sans-serif" font-size="11" lengthAdjust="spacing" textLength="47" x="81" y="352.7314">goToJail()</text><ellipse cx="72" cy="362.1484" fill="#84BE84" rx="3" ry="3" style="stroke:#038048;stroke-width:1.0;"/><text fill="#000000" font-family="sans-serif" font-size="11" lengthAdjust="spacing" textLength="71" x="81" y="366.5674">isBankrupted()</text><ellipse cx="72" cy="375.9844" fill="#84BE84" rx="3" ry="3" style="stroke:#038048;stroke-width:1.0;"/><text fill="#000000" font-family="sans-serif" font-size="11" lengthAdjust="spacing" textLength="34" x="81" y="380.4033">move()</text><ellipse cx="72" cy="389.8203" fill="#84BE84" rx="3" ry="3" style="stroke:#038048;stroke-width:1.0;"/><text fill="#000000" font-family="sans-serif" font-size="11" lengthAdjust="spacing" textLength="43" x="81" y="394.2393">rollDice()</text><ellipse cx="72" cy="403.6563" fill="#84BE84" rx="3" ry="3" style="stroke:#038048;stroke-width:1.0;"/><text fill="#000000" font-family="sans-serif" font-size="11" lengthAdjust="spacing" textLength="46" x="81" y="408.0752">setInJail()</text><ellipse cx="72" cy="417.4922" fill="#84BE84" rx="3" ry="3" style="stroke:#038048;stroke-width:1.0;"/><text fill="#000000" font-family="sans-serif" font-size="11" lengthAdjust="spacing" textLength="55" x="81" y="421.9111">setMoney()</text><ellipse cx="72" cy="431.3281" fill="#84BE84" rx="3" ry="3" style="stroke:#038048;stroke-width:1.0;"/><text fill="#000000" font-family="sans-serif" font-size="11" lengthAdjust="spacing" textLength="50" x="81" y="435.7471">setName()</text><ellipse cx="72" cy="445.1641" fill="#84BE84" rx="3" ry="3" style="stroke:#038048;stroke-width:1.0;"/><text fill="#000000" font-family="sans-serif" font-size="11" lengthAdjust="spacing" textLength="60" x="81" y="449.583">setPosition()</text><text fill="#888888" font-family="sans-serif" font-size="10" lengthAdjust="spacing" textLength="0" x="394" y="512.6621"/><text fill="#888888" font-family="sans-serif" font-size="10" lengthAdjust="spacing" textLength="0" x="394" y="525.2402"/><text fill="#888888" font-family="sans-serif" font-size="10" lengthAdjust="spacing" textLength="392" x="2" y="537.8184">COMP3211 Software Engineering Course Project: Monopoly, 2021 Fall</text><text fill="#888888" font-family="sans-serif" font-size="10" lengthAdjust="spacing" textLength="394" x="0" y="550.3965">by Group 22: MAN Furui, LIU Sicheng, WANG Meng, XING Shiji</text><!--MD5=[f68bc0b8a6c51cea7bbecc52a2816e37]
@startuml

title __MODEL's Class Diagram__\n

  namespace hk.edu.polyu.comp.comp3211.monopoly {
    namespace model {
      class hk.edu.polyu.comp.comp3211.monopoly.model.Board {
          - p_index : int
          - players : Player[]
          - round : int
          - squares : ISquare[]
          + Board()
          + getP_index()
          + getPlayers()
          + getRound()
          + getSquares()
          + load()
          + save()
          + setP_index()
          + setRound()
      }
    }
  }
  

  namespace hk.edu.polyu.comp.comp3211.monopoly {
    namespace model {
      class hk.edu.polyu.comp.comp3211.monopoly.model.Player {
          - bankrupted : boolean
          - inJail : int
          - money : int
          - name : String
          - position : int
          - properties : Property[]
          + Player()
          + bankrupt()
          + getInJail()
          + getMoney()
          + getName()
          + getPosition()
          + goToJail()
          + isBankrupted()
          + move()
          + rollDice()
          + setInJail()
          + setMoney()
          + setName()
          + setPosition()
      }
    }
  }
  



right footer


COMP3211 Software Engineering Course Project: Monopoly, 2021 Fall
by Group 22: MAN Furui, LIU Sicheng, WANG Meng, XING Shiji
endfooter

@enduml

PlantUML version 1.2021.12(Wed Oct 06 00:01:58 GMT+08:00 2021)
(GPL source distribution)
Java Runtime: Java(TM) SE Runtime Environment
JVM: Java HotSpot(TM) 64-Bit Server VM
Default Encoding: Cp1252
Language: zh
Country: CN
--></g></svg>