<?xml version="1.0" encoding="UTF-8" standalone="no"?><svg xmlns="http://www.w3.org/2000/svg" xmlns:xlink="http://www.w3.org/1999/xlink" contentScriptType="application/ecmascript" contentStyleType="text/css" height="582px" preserveAspectRatio="none" style="width:729px;height:582px;" version="1.1" viewBox="0 0 729 582" width="729px" zoomAndPan="magnify"><defs><filter height="300%" id="fm1qvhzmhjqgk" width="300%" x="-1" y="-1"><feGaussianBlur result="blurOut" stdDeviation="2.0"/><feColorMatrix in="blurOut" result="blurOut2" type="matrix" values="0 0 0 0 0 0 0 0 0 0 0 0 0 0 0 0 0 0 .4 0"/><feOffset dx="4.0" dy="4.0" in="blurOut2" result="blurOut3"/><feBlend in="SourceGraphic" in2="blurOut3" mode="normal"/></filter></defs><g><text fill="#000000" font-family="sans-serif" font-size="18" lengthAdjust="spacing" text-decoration="underline" textLength="258" x="229" y="18.6855">CONTROLLER's Class Diagram</text><text fill="#000000" font-family="sans-serif" font-size="18" lengthAdjust="spacing" textLength="0" x="360.5" y="41.3262"/><!--MD5=[5508ff9bbedac472b1f23f1d1e06e5c5]
cluster hk.edu.polyu.comp.comp3211.monopoly--><polygon fill="#FFFFFF" filter="url(#fm1qvhzmhjqgk)" points="176,51.2813,460,51.2813,467,74.8906,573,74.8906,573,370.2813,176,370.2813,176,51.2813" style="stroke:#000000;stroke-width:1.5;"/><line style="stroke:#000000;stroke-width:1.5;" x1="176" x2="467" y1="74.8906" y2="74.8906"/><text fill="#000000" font-family="sans-serif" font-size="14" font-weight="bold" lengthAdjust="spacing" textLength="278" x="180" y="67.8145">hk.edu.polyu.comp.comp3211.monopoly</text><!--MD5=[150a38e87f15417bb9c0fe5e887a5061]
cluster hk.edu.polyu.comp.comp3211.monopoly.controller--><polygon fill="#FFFFFF" filter="url(#fm1qvhzmhjqgk)" points="200,95.2813,275,95.2813,282,118.8906,549,118.8906,549,346.2813,200,346.2813,200,95.2813" style="stroke:#000000;stroke-width:1.5;"/><line style="stroke:#000000;stroke-width:1.5;" x1="200" x2="282" y1="118.8906" y2="118.8906"/><text fill="#000000" font-family="sans-serif" font-size="14" font-weight="bold" lengthAdjust="spacing" textLength="69" x="204" y="111.8145">controller</text><!--MD5=[e0d38505e61bf288b3ba973930295e9b]
cluster hk.edu.polyu.comp.comp3211.monopoly.model--><polygon fill="#FFFFFF" filter="url(#fm1qvhzmhjqgk)" points="16,420.2813,347,420.2813,354,443.8906,357,443.8906,357,520.2813,16,520.2813,16,420.2813" style="stroke:#000000;stroke-width:1.5;"/><line style="stroke:#000000;stroke-width:1.5;" x1="16" x2="354" y1="443.8906" y2="443.8906"/><text fill="#000000" font-family="sans-serif" font-size="14" font-weight="bold" lengthAdjust="spacing" textLength="325" x="20" y="436.8145">hk.edu.polyu.comp.comp3211.monopoly.model</text><!--MD5=[975ca0cb6ea56eddfec2f457787041d8]
cluster hk.edu.polyu.comp.comp3211.monopoly.view--><polygon fill="#FFFFFF" filter="url(#fm1qvhzmhjqgk)" points="381,420.2813,702,420.2813,709,443.8906,712,443.8906,712,520.2813,381,520.2813,381,420.2813" style="stroke:#000000;stroke-width:1.5;"/><line style="stroke:#000000;stroke-width:1.5;" x1="381" x2="709" y1="443.8906" y2="443.8906"/><text fill="#000000" font-family="sans-serif" font-size="14" font-weight="bold" lengthAdjust="spacing" textLength="315" x="385" y="436.8145">hk.edu.polyu.comp.comp3211.monopoly.view</text><!--MD5=[1ee5cd33b28897eb7e78ce34c8956e9c]
class hk.edu.polyu.comp.comp3211.monopoly.controller.EndGame--><rect codeLine="6" fill="#FEFECE" filter="url(#fm1qvhzmhjqgk)" height="61.8359" id="hk.edu.polyu.comp.comp3211.monopoly.controller.EndGame" style="stroke:#A80036;stroke-width:1.5;" width="88" x="216" y="261.2813"/><ellipse cx="231" cy="277.2813" fill="#ADD1B2" rx="11" ry="11" style="stroke:#A80036;stroke-width:1.0;"/><path d="M233.7656,273.1563 Q233.9219,272.9375 234.1094,272.8281 Q234.2969,272.7188 234.5156,272.7188 Q234.8906,272.7188 235.125,272.9844 Q235.3594,273.2344 235.3594,273.8438 L235.3594,275.2969 Q235.3594,275.9063 235.125,276.1719 Q234.8906,276.4375 234.5156,276.4375 Q234.1719,276.4375 233.9688,276.2344 Q233.7656,276.0469 233.6563,275.5313 Q233.6094,275.1719 233.4219,274.9844 Q233.0938,274.6094 232.4844,274.3906 Q231.875,274.1719 231.25,274.1719 Q230.4844,274.1719 229.8438,274.5 Q229.2188,274.8281 228.7188,275.5781 Q228.2344,276.3281 228.2344,277.3594 L228.2344,278.4531 Q228.2344,279.6875 229.125,280.5156 Q230.0156,281.3281 231.6094,281.3281 Q232.5469,281.3281 233.2031,281.0781 Q233.5938,280.9219 234.0156,280.4844 Q234.2813,280.2188 234.4219,280.1406 Q234.5781,280.0625 234.7813,280.0625 Q235.1094,280.0625 235.3594,280.3281 Q235.625,280.5781 235.625,280.9219 Q235.625,281.2656 235.2813,281.6719 Q234.7813,282.25 233.9844,282.5781 Q232.9063,283.0313 231.6094,283.0313 Q230.0938,283.0313 228.8906,282.4063 Q227.9063,281.9063 227.2188,280.8438 Q226.5313,279.7656 226.5313,278.4844 L226.5313,277.3281 Q226.5313,276 227.1406,274.8594 Q227.7656,273.7031 228.8594,273.0938 Q229.9531,272.4688 231.1875,272.4688 Q231.9219,272.4688 232.5625,272.6406 Q233.2188,272.7969 233.7656,273.1563 Z " fill="#000000"/><text fill="#000000" font-family="sans-serif" font-size="12" lengthAdjust="spacing" textLength="56" x="245" y="282.1914">EndGame</text><line style="stroke:#A80036;stroke-width:1.5;" x1="217" x2="303" y1="293.2813" y2="293.2813"/><line style="stroke:#A80036;stroke-width:1.5;" x1="217" x2="303" y1="301.2813" y2="301.2813"/><ellipse cx="227" cy="312.2813" fill="#84BE84" rx="3" ry="3" style="stroke:#038048;stroke-width:1.0;"/><text fill="#000000" font-family="sans-serif" font-size="11" lengthAdjust="spacing" textLength="45" x="236" y="316.7002">terminal()</text><!--MD5=[cd7c88cfe1718b47eede6a9eeb39f121]
class hk.edu.polyu.comp.comp3211.monopoly.controller.Game--><rect codeLine="15" fill="#FEFECE" filter="url(#fm1qvhzmhjqgk)" height="75.6719" id="hk.edu.polyu.comp.comp3211.monopoly.controller.Game" style="stroke:#A80036;stroke-width:1.5;" width="71" x="339.5" y="254.2813"/><ellipse cx="356.75" cy="270.2813" fill="#ADD1B2" rx="11" ry="11" style="stroke:#A80036;stroke-width:1.0;"/><path d="M359.5156,266.1563 Q359.6719,265.9375 359.8594,265.8281 Q360.0469,265.7188 360.2656,265.7188 Q360.6406,265.7188 360.875,265.9844 Q361.1094,266.2344 361.1094,266.8438 L361.1094,268.2969 Q361.1094,268.9063 360.875,269.1719 Q360.6406,269.4375 360.2656,269.4375 Q359.9219,269.4375 359.7188,269.2344 Q359.5156,269.0469 359.4063,268.5313 Q359.3594,268.1719 359.1719,267.9844 Q358.8438,267.6094 358.2344,267.3906 Q357.625,267.1719 357,267.1719 Q356.2344,267.1719 355.5938,267.5 Q354.9688,267.8281 354.4688,268.5781 Q353.9844,269.3281 353.9844,270.3594 L353.9844,271.4531 Q353.9844,272.6875 354.875,273.5156 Q355.7656,274.3281 357.3594,274.3281 Q358.2969,274.3281 358.9531,274.0781 Q359.3438,273.9219 359.7656,273.4844 Q360.0313,273.2188 360.1719,273.1406 Q360.3281,273.0625 360.5313,273.0625 Q360.8594,273.0625 361.1094,273.3281 Q361.375,273.5781 361.375,273.9219 Q361.375,274.2656 361.0313,274.6719 Q360.5313,275.25 359.7344,275.5781 Q358.6563,276.0313 357.3594,276.0313 Q355.8438,276.0313 354.6406,275.4063 Q353.6563,274.9063 352.9688,273.8438 Q352.2813,272.7656 352.2813,271.4844 L352.2813,270.3281 Q352.2813,269 352.8906,267.8594 Q353.5156,266.7031 354.6094,266.0938 Q355.7031,265.4688 356.9375,265.4688 Q357.6719,265.4688 358.3125,265.6406 Q358.9688,265.7969 359.5156,266.1563 Z " fill="#000000"/><text fill="#000000" font-family="sans-serif" font-size="12" lengthAdjust="spacing" textLength="34" x="371.25" y="275.1914">Game</text><line style="stroke:#A80036;stroke-width:1.5;" x1="340.5" x2="409.5" y1="286.2813" y2="286.2813"/><line style="stroke:#A80036;stroke-width:1.5;" x1="340.5" x2="409.5" y1="294.2813" y2="294.2813"/><ellipse cx="350.5" cy="305.2813" fill="#84BE84" rx="3" ry="3" style="stroke:#038048;stroke-width:1.0;"/><text fill="#000000" font-family="sans-serif" font-size="11" lengthAdjust="spacing" textLength="36" x="359.5" y="309.7002">Game()</text><ellipse cx="350.5" cy="319.1172" fill="#84BE84" rx="3" ry="3" style="stroke:#038048;stroke-width:1.0;"/><text fill="#000000" font-family="sans-serif" font-size="11" lengthAdjust="spacing" textLength="45" x="359.5" y="323.5361">terminal()</text><!--MD5=[d0190fa42217252e2a7cbc38da320349]
class hk.edu.polyu.comp.comp3211.monopoly.controller.IBase--><rect codeLine="25" fill="#FEFECE" filter="url(#fm1qvhzmhjqgk)" height="61.8359" id="hk.edu.polyu.comp.comp3211.monopoly.controller.IBase" style="stroke:#A80036;stroke-width:1.5;" width="74" x="338" y="131.2813"/><ellipse cx="357.5" cy="147.2813" fill="#B4A7E5" rx="11" ry="11" style="stroke:#A80036;stroke-width:1.0;"/><path d="M358.4531,143.9219 L358.4531,150.5781 L360.1719,150.5781 Q360.7813,150.5781 361.0469,150.8125 Q361.3125,151.0469 361.3125,151.4375 Q361.3125,151.8125 361.0469,152.0469 Q360.7813,152.2813 360.1719,152.2813 L355.0313,152.2813 Q354.4219,152.2813 354.1563,152.0469 Q353.8906,151.8125 353.8906,151.4219 Q353.8906,151.0469 354.1563,150.8125 Q354.4219,150.5781 355.0313,150.5781 L356.75,150.5781 L356.75,143.9219 L355.0313,143.9219 Q354.4219,143.9219 354.1563,143.6875 Q353.8906,143.4531 353.8906,143.0625 Q353.8906,142.6875 354.1563,142.4531 Q354.4219,142.2188 355.0313,142.2188 L360.1719,142.2188 Q360.7813,142.2188 361.0469,142.4531 Q361.3125,142.6875 361.3125,143.0625 Q361.3125,143.4531 361.0469,143.6875 Q360.7813,143.9219 360.1719,143.9219 L358.4531,143.9219 Z " fill="#000000"/><text fill="#000000" font-family="sans-serif" font-size="12" font-style="italic" lengthAdjust="spacing" textLength="32" x="372.5" y="152.1914">IBase</text><line style="stroke:#A80036;stroke-width:1.5;" x1="339" x2="411" y1="163.2813" y2="163.2813"/><line style="stroke:#A80036;stroke-width:1.5;" x1="339" x2="411" y1="171.2813" y2="171.2813"/><ellipse cx="349" cy="182.2813" fill="#84BE84" rx="3" ry="3" style="stroke:#038048;stroke-width:1.0;"/><text fill="#000000" font-family="sans-serif" font-size="11" font-style="italic" lengthAdjust="spacing" textLength="48" x="358" y="186.7002">terminal()</text><!--MD5=[02d3cba28abe8a89ef6dd5030aa65b93]
class hk.edu.polyu.comp.comp3211.monopoly.controller.StartMenu--><rect codeLine="34" fill="#FEFECE" filter="url(#fm1qvhzmhjqgk)" height="61.8359" id="hk.edu.polyu.comp.comp3211.monopoly.controller.StartMenu" style="stroke:#A80036;stroke-width:1.5;" width="87" x="445.5" y="261.2813"/><ellipse cx="460.5" cy="277.2813" fill="#ADD1B2" rx="11" ry="11" style="stroke:#A80036;stroke-width:1.0;"/><path d="M463.2656,273.1563 Q463.4219,272.9375 463.6094,272.8281 Q463.7969,272.7188 464.0156,272.7188 Q464.3906,272.7188 464.625,272.9844 Q464.8594,273.2344 464.8594,273.8438 L464.8594,275.2969 Q464.8594,275.9063 464.625,276.1719 Q464.3906,276.4375 464.0156,276.4375 Q463.6719,276.4375 463.4688,276.2344 Q463.2656,276.0469 463.1563,275.5313 Q463.1094,275.1719 462.9219,274.9844 Q462.5938,274.6094 461.9844,274.3906 Q461.375,274.1719 460.75,274.1719 Q459.9844,274.1719 459.3438,274.5 Q458.7188,274.8281 458.2188,275.5781 Q457.7344,276.3281 457.7344,277.3594 L457.7344,278.4531 Q457.7344,279.6875 458.625,280.5156 Q459.5156,281.3281 461.1094,281.3281 Q462.0469,281.3281 462.7031,281.0781 Q463.0938,280.9219 463.5156,280.4844 Q463.7813,280.2188 463.9219,280.1406 Q464.0781,280.0625 464.2813,280.0625 Q464.6094,280.0625 464.8594,280.3281 Q465.125,280.5781 465.125,280.9219 Q465.125,281.2656 464.7813,281.6719 Q464.2813,282.25 463.4844,282.5781 Q462.4063,283.0313 461.1094,283.0313 Q459.5938,283.0313 458.3906,282.4063 Q457.4063,281.9063 456.7188,280.8438 Q456.0313,279.7656 456.0313,278.4844 L456.0313,277.3281 Q456.0313,276 456.6406,274.8594 Q457.2656,273.7031 458.3594,273.0938 Q459.4531,272.4688 460.6875,272.4688 Q461.4219,272.4688 462.0625,272.6406 Q462.7188,272.7969 463.2656,273.1563 Z " fill="#000000"/><text fill="#000000" font-family="sans-serif" font-size="12" lengthAdjust="spacing" textLength="55" x="474.5" y="282.1914">StartMenu</text><line style="stroke:#A80036;stroke-width:1.5;" x1="446.5" x2="531.5" y1="293.2813" y2="293.2813"/><line style="stroke:#A80036;stroke-width:1.5;" x1="446.5" x2="531.5" y1="301.2813" y2="301.2813"/><ellipse cx="456.5" cy="312.2813" fill="#84BE84" rx="3" ry="3" style="stroke:#038048;stroke-width:1.0;"/><text fill="#000000" font-family="sans-serif" font-size="11" lengthAdjust="spacing" textLength="45" x="465.5" y="316.7002">terminal()</text><!--MD5=[fb9a7c962297ff12a4d5b142d4389831]
class hk.edu.polyu.comp.comp3211.monopoly.model.Board--><rect fill="#FEFECE" filter="url(#fm1qvhzmhjqgk)" height="48" id="hk.edu.polyu.comp.comp3211.monopoly.model.Board" style="stroke:#A80036;stroke-width:1.5;" width="65" x="275.5" y="456.2813"/><ellipse cx="290.5" cy="472.2813" fill="#ADD1B2" rx="11" ry="11" style="stroke:#A80036;stroke-width:1.0;"/><path d="M293.2656,468.1563 Q293.4219,467.9375 293.6094,467.8281 Q293.7969,467.7188 294.0156,467.7188 Q294.3906,467.7188 294.625,467.9844 Q294.8594,468.2344 294.8594,468.8438 L294.8594,470.2969 Q294.8594,470.9063 294.625,471.1719 Q294.3906,471.4375 294.0156,471.4375 Q293.6719,471.4375 293.4688,471.2344 Q293.2656,471.0469 293.1563,470.5313 Q293.1094,470.1719 292.9219,469.9844 Q292.5938,469.6094 291.9844,469.3906 Q291.375,469.1719 290.75,469.1719 Q289.9844,469.1719 289.3438,469.5 Q288.7188,469.8281 288.2188,470.5781 Q287.7344,471.3281 287.7344,472.3594 L287.7344,473.4531 Q287.7344,474.6875 288.625,475.5156 Q289.5156,476.3281 291.1094,476.3281 Q292.0469,476.3281 292.7031,476.0781 Q293.0938,475.9219 293.5156,475.4844 Q293.7813,475.2188 293.9219,475.1406 Q294.0781,475.0625 294.2813,475.0625 Q294.6094,475.0625 294.8594,475.3281 Q295.125,475.5781 295.125,475.9219 Q295.125,476.2656 294.7813,476.6719 Q294.2813,477.25 293.4844,477.5781 Q292.4063,478.0313 291.1094,478.0313 Q289.5938,478.0313 288.3906,477.4063 Q287.4063,476.9063 286.7188,475.8438 Q286.0313,474.7656 286.0313,473.4844 L286.0313,472.3281 Q286.0313,471 286.6406,469.8594 Q287.2656,468.7031 288.3594,468.0938 Q289.4531,467.4688 290.6875,467.4688 Q291.4219,467.4688 292.0625,467.6406 Q292.7188,467.7969 293.2656,468.1563 Z " fill="#000000"/><text fill="#000000" font-family="sans-serif" font-size="12" lengthAdjust="spacing" textLength="33" x="304.5" y="477.1914">Board</text><line style="stroke:#A80036;stroke-width:1.5;" x1="276.5" x2="339.5" y1="488.2813" y2="488.2813"/><line style="stroke:#A80036;stroke-width:1.5;" x1="276.5" x2="339.5" y1="496.2813" y2="496.2813"/><!--MD5=[dc19781d1fd666a2026b0e5ade766e9d]
class hk.edu.polyu.comp.comp3211.monopoly.view.Printer--><rect fill="#FEFECE" filter="url(#fm1qvhzmhjqgk)" height="48" id="hk.edu.polyu.comp.comp3211.monopoly.view.Printer" style="stroke:#A80036;stroke-width:1.5;" width="68" x="397" y="456.2813"/><ellipse cx="412" cy="472.2813" fill="#ADD1B2" rx="11" ry="11" style="stroke:#A80036;stroke-width:1.0;"/><path d="M414.7656,468.1563 Q414.9219,467.9375 415.1094,467.8281 Q415.2969,467.7188 415.5156,467.7188 Q415.8906,467.7188 416.125,467.9844 Q416.3594,468.2344 416.3594,468.8438 L416.3594,470.2969 Q416.3594,470.9063 416.125,471.1719 Q415.8906,471.4375 415.5156,471.4375 Q415.1719,471.4375 414.9688,471.2344 Q414.7656,471.0469 414.6563,470.5313 Q414.6094,470.1719 414.4219,469.9844 Q414.0938,469.6094 413.4844,469.3906 Q412.875,469.1719 412.25,469.1719 Q411.4844,469.1719 410.8438,469.5 Q410.2188,469.8281 409.7188,470.5781 Q409.2344,471.3281 409.2344,472.3594 L409.2344,473.4531 Q409.2344,474.6875 410.125,475.5156 Q411.0156,476.3281 412.6094,476.3281 Q413.5469,476.3281 414.2031,476.0781 Q414.5938,475.9219 415.0156,475.4844 Q415.2813,475.2188 415.4219,475.1406 Q415.5781,475.0625 415.7813,475.0625 Q416.1094,475.0625 416.3594,475.3281 Q416.625,475.5781 416.625,475.9219 Q416.625,476.2656 416.2813,476.6719 Q415.7813,477.25 414.9844,477.5781 Q413.9063,478.0313 412.6094,478.0313 Q411.0938,478.0313 409.8906,477.4063 Q408.9063,476.9063 408.2188,475.8438 Q407.5313,474.7656 407.5313,473.4844 L407.5313,472.3281 Q407.5313,471 408.1406,469.8594 Q408.7656,468.7031 409.8594,468.0938 Q410.9531,467.4688 412.1875,467.4688 Q412.9219,467.4688 413.5625,467.6406 Q414.2188,467.7969 414.7656,468.1563 Z " fill="#000000"/><text fill="#000000" font-family="sans-serif" font-size="12" lengthAdjust="spacing" textLength="36" x="426" y="477.1914">Printer</text><line style="stroke:#A80036;stroke-width:1.5;" x1="398" x2="464" y1="488.2813" y2="488.2813"/><line style="stroke:#A80036;stroke-width:1.5;" x1="398" x2="464" y1="496.2813" y2="496.2813"/><!--MD5=[6b1d8e87a9a32d7fd4196f4b0410388a]
reverse link hk.edu.polyu.comp.comp3211.monopoly.controller.IBase to hk.edu.polyu.comp.comp3211.monopoly.controller.EndGame--><path codeLine="41" d="M334.58,208.2713 C318.89,225.7313 301.33,245.2813 287.19,261.0113 " fill="none" id="hk.edu.polyu.comp.comp3211.monopoly.controller.IBase-backto-hk.edu.polyu.comp.comp3211.monopoly.controller.EndGame" style="stroke:#A80036;stroke-width:1.0;stroke-dasharray:7.0,7.0;"/><polygon fill="none" points="329.46,203.4912,348.04,193.2913,339.88,212.8513,329.46,203.4912" style="stroke:#A80036;stroke-width:1.0;"/><!--MD5=[8f75ad3766f88078eb62b117730fb1a6]
reverse link hk.edu.polyu.comp.comp3211.monopoly.controller.IBase to hk.edu.polyu.comp.comp3211.monopoly.controller.Game--><path codeLine="42" d="M375,213.4912 C375,227.0413 375,241.4513 375,254.1313 " fill="none" id="hk.edu.polyu.comp.comp3211.monopoly.controller.IBase-backto-hk.edu.polyu.comp.comp3211.monopoly.controller.Game" style="stroke:#A80036;stroke-width:1.0;stroke-dasharray:7.0,7.0;"/><polygon fill="none" points="368,213.2913,375,193.2913,382,213.2913,368,213.2913" style="stroke:#A80036;stroke-width:1.0;"/><!--MD5=[78069e6d855f7bfb365b03bb1814f79d]
reverse link hk.edu.polyu.comp.comp3211.monopoly.controller.Game to hk.edu.polyu.comp.comp3211.monopoly.model.Board--><path codeLine="43" d="M357.11,342.9412 C343.87,379.7012 326.44,428.0913 316.3,456.2413 " fill="none" id="hk.edu.polyu.comp.comp3211.monopoly.controller.Game-backto-hk.edu.polyu.comp.comp3211.monopoly.model.Board" style="stroke:#A80036;stroke-width:1.0;"/><polygon fill="#FFFFFF" points="361.6,330.4713,355.8004,334.7567,357.5256,341.7584,363.3252,337.473,361.6,330.4713" style="stroke:#A80036;stroke-width:1.0;"/><text fill="#000000" font-family="sans-serif" font-size="13" lengthAdjust="spacing" textLength="32" x="342" y="400.7764">board</text><!--MD5=[056ae82caa8d149318cccfe631c87416]
reverse link hk.edu.polyu.comp.comp3211.monopoly.controller.Game to hk.edu.polyu.comp.comp3211.monopoly.view.Printer--><path codeLine="44" d="M389.95,342.9412 C401.02,379.7012 415.59,428.0913 424.06,456.2413 " fill="none" id="hk.edu.polyu.comp.comp3211.monopoly.controller.Game-backto-hk.edu.polyu.comp.comp3211.monopoly.view.Printer" style="stroke:#A80036;stroke-width:1.0;"/><polygon fill="#FFFFFF" points="386.2,330.4713,384.0979,337.3692,389.6566,341.9626,391.7588,335.0647,386.2,330.4713" style="stroke:#A80036;stroke-width:1.0;"/><text fill="#000000" font-family="sans-serif" font-size="13" lengthAdjust="spacing" textLength="36" x="409" y="400.7764">printer</text><!--MD5=[c2a7f670dc28b0cbf4ef6626fb83362f]
reverse link hk.edu.polyu.comp.comp3211.monopoly.controller.IBase to hk.edu.polyu.comp.comp3211.monopoly.controller.StartMenu--><path codeLine="45" d="M415.07,208.2713 C430.62,225.7313 448.03,245.2813 462.04,261.0113 " fill="none" id="hk.edu.polyu.comp.comp3211.monopoly.controller.IBase-backto-hk.edu.polyu.comp.comp3211.monopoly.controller.StartMenu" style="stroke:#A80036;stroke-width:1.0;stroke-dasharray:7.0,7.0;"/><polygon fill="none" points="409.8,212.8813,401.73,193.2913,420.26,203.5713,409.8,212.8813" style="stroke:#A80036;stroke-width:1.0;"/><text fill="#888888" font-family="sans-serif" font-size="10" lengthAdjust="spacing" textLength="0" x="716" y="536.6621"/><text fill="#888888" font-family="sans-serif" font-size="10" lengthAdjust="spacing" textLength="0" x="716" y="549.2402"/><text fill="#888888" font-family="sans-serif" font-size="10" lengthAdjust="spacing" textLength="336" x="380" y="561.8184">COMP3211 Software Engineering Course Project: Monopoly, 2021 Fall</text><text fill="#888888" font-family="sans-serif" font-size="10" lengthAdjust="spacing" textLength="302" x="414" y="574.3965">by Group 22: MAN Furui, LIU Sicheng, WANG Meng, XING Shiji</text><!--MD5=[f880584f5196a45647dff496986e5403]
@startuml

title __CONTROLLER's Class Diagram__\n

  namespace hk.edu.polyu.comp.comp3211.monopoly {
    namespace controller {
      class hk.edu.polyu.comp.comp3211.monopoly.controller.EndGame {
          + terminal()
      }
    }
  }
  

  namespace hk.edu.polyu.comp.comp3211.monopoly {
    namespace controller {
      class hk.edu.polyu.comp.comp3211.monopoly.controller.Game {
          + Game()
          + terminal()
      }
    }
  }
  

  namespace hk.edu.polyu.comp.comp3211.monopoly {
    namespace controller {
      interface hk.edu.polyu.comp.comp3211.monopoly.controller.IBase {
          {abstract} + terminal()
      }
    }
  }
  

  namespace hk.edu.polyu.comp.comp3211.monopoly {
    namespace controller {
      class hk.edu.polyu.comp.comp3211.monopoly.controller.StartMenu {
          + terminal()
      }
    }
  }
  

  hk.edu.polyu.comp.comp3211.monopoly.controller.EndGame .up.|> hk.edu.polyu.comp.comp3211.monopoly.controller.IBase
  hk.edu.polyu.comp.comp3211.monopoly.controller.Game .up.|> hk.edu.polyu.comp.comp3211.monopoly.controller.IBase
  hk.edu.polyu.comp.comp3211.monopoly.controller.Game o- - hk.edu.polyu.comp.comp3211.monopoly.model.Board : board
  hk.edu.polyu.comp.comp3211.monopoly.controller.Game o- - hk.edu.polyu.comp.comp3211.monopoly.view.Printer : printer
  hk.edu.polyu.comp.comp3211.monopoly.controller.StartMenu .up.|> hk.edu.polyu.comp.comp3211.monopoly.controller.IBase


right footer


COMP3211 Software Engineering Course Project: Monopoly, 2021 Fall
by Group 22: MAN Furui, LIU Sicheng, WANG Meng, XING Shiji
endfooter

@enduml

PlantUML version 1.2021.4(Sun Apr 04 16:49:39 HKT 2021)
(GPL source distribution)
Java Runtime: Java(TM) SE Runtime Environment
JVM: Java HotSpot(TM) 64-Bit Server VM
Default Encoding: Cp1252
Language: en
Country: US
--></g></svg>