<?xml version="1.0" encoding="UTF-8" standalone="no"?><svg xmlns="http://www.w3.org/2000/svg" xmlns:xlink="http://www.w3.org/1999/xlink" contentScriptType="application/ecmascript" contentStyleType="text/css" height="572px" preserveAspectRatio="none" style="width:398px;height:572px;" version="1.1" viewBox="0 0 398 572" width="398px" zoomAndPan="magnify"><defs><filter height="300%" id="f1rm9g437st31p" width="300%" x="-1" y="-1"><feGaussianBlur result="blurOut" stdDeviation="2.0"/><feColorMatrix in="blurOut" result="blurOut2" type="matrix" values="0 0 0 0 0 0 0 0 0 0 0 0 0 0 0 0 0 0 .4 0"/><feOffset dx="4.0" dy="4.0" in="blurOut2" result="blurOut3"/><feBlend in="SourceGraphic" in2="blurOut3" mode="normal"/></filter></defs><g><text fill="#000000" font-family="sans-serif" font-size="18" lengthAdjust="spacing" text-decoration="underline" textLength="198" x="93.5" y="18.6855">MODEL's Class Diagram</text><text fill="#000000" font-family="sans-serif" font-size="18" lengthAdjust="spacing" textLength="0" x="195" y="41.3262"/><!--MD5=[5508ff9bbedac472b1f23f1d1e06e5c5]
cluster hk.edu.polyu.comp.comp3211.monopoly--><polygon fill="#FFFFFF" filter="url(#f1rm9g437st31p)" points="16,51.2813,300,51.2813,307,74.8906,381,74.8906,381,510.2813,16,510.2813,16,51.2813" style="stroke:#000000;stroke-width:1.5;"/><line style="stroke:#000000;stroke-width:1.5;" x1="16" x2="307" y1="74.8906" y2="74.8906"/><text fill="#000000" font-family="sans-serif" font-size="14" font-weight="bold" lengthAdjust="spacing" textLength="278" x="20" y="67.8145">hk.edu.polyu.comp.comp3211.monopoly</text><!--MD5=[e0d38505e61bf288b3ba973930295e9b]
cluster hk.edu.polyu.comp.comp3211.monopoly.model--><polygon fill="#FFFFFF" filter="url(#f1rm9g437st31p)" points="40,95.2813,89,95.2813,96,118.8906,357,118.8906,357,486.2813,40,486.2813,40,95.2813" style="stroke:#000000;stroke-width:1.5;"/><line style="stroke:#000000;stroke-width:1.5;" x1="40" x2="96" y1="118.8906" y2="118.8906"/><text fill="#000000" font-family="sans-serif" font-size="14" font-weight="bold" lengthAdjust="spacing" textLength="43" x="44" y="111.8145">model</text><!--MD5=[fb9a7c962297ff12a4d5b142d4389831]
class hk.edu.polyu.comp.comp3211.monopoly.model.Board--><rect codeLine="6" fill="#FEFECE" filter="url(#f1rm9g437st31p)" height="227.8672" id="hk.edu.polyu.comp.comp3211.monopoly.model.Board" style="stroke:#A80036;stroke-width:1.5;" width="118" x="223" y="186.7813"/><ellipse cx="261.85" cy="202.7813" fill="#ADD1B2" rx="11" ry="11" style="stroke:#A80036;stroke-width:1.0;"/><path d="M264.6156,198.6563 Q264.7719,198.4375 264.9594,198.3281 Q265.1469,198.2188 265.3656,198.2188 Q265.7406,198.2188 265.975,198.4844 Q266.2094,198.7344 266.2094,199.3438 L266.2094,200.7969 Q266.2094,201.4063 265.975,201.6719 Q265.7406,201.9375 265.3656,201.9375 Q265.0219,201.9375 264.8188,201.7344 Q264.6156,201.5469 264.5063,201.0313 Q264.4594,200.6719 264.2719,200.4844 Q263.9438,200.1094 263.3344,199.8906 Q262.725,199.6719 262.1,199.6719 Q261.3344,199.6719 260.6938,200 Q260.0688,200.3281 259.5688,201.0781 Q259.0844,201.8281 259.0844,202.8594 L259.0844,203.9531 Q259.0844,205.1875 259.975,206.0156 Q260.8656,206.8281 262.4594,206.8281 Q263.3969,206.8281 264.0531,206.5781 Q264.4438,206.4219 264.8656,205.9844 Q265.1313,205.7188 265.2719,205.6406 Q265.4281,205.5625 265.6313,205.5625 Q265.9594,205.5625 266.2094,205.8281 Q266.475,206.0781 266.475,206.4219 Q266.475,206.7656 266.1313,207.1719 Q265.6313,207.75 264.8344,208.0781 Q263.7563,208.5313 262.4594,208.5313 Q260.9438,208.5313 259.7406,207.9063 Q258.7563,207.4063 258.0688,206.3438 Q257.3813,205.2656 257.3813,203.9844 L257.3813,202.8281 Q257.3813,201.5 257.9906,200.3594 Q258.6156,199.2031 259.7094,198.5938 Q260.8031,197.9688 262.0375,197.9688 Q262.7719,197.9688 263.4125,198.1406 Q264.0688,198.2969 264.6156,198.6563 Z " fill="#000000"/><text fill="#000000" font-family="sans-serif" font-size="12" lengthAdjust="spacing" textLength="33" x="281.15" y="207.6914">Board</text><line style="stroke:#A80036;stroke-width:1.5;" x1="224" x2="340" y1="218.7813" y2="218.7813"/><rect fill="none" height="6" style="stroke:#C82930;stroke-width:1.0;" width="6" x="231" y="226.7813"/><text fill="#000000" font-family="sans-serif" font-size="11" lengthAdjust="spacing" textLength="58" x="243" y="234.2002">p_index : int</text><rect fill="none" height="6" style="stroke:#C82930;stroke-width:1.0;" width="6" x="231" y="240.6172"/><text fill="#000000" font-family="sans-serif" font-size="11" lengthAdjust="spacing" textLength="81" x="243" y="248.0361">players : Player[]</text><rect fill="none" height="6" style="stroke:#C82930;stroke-width:1.0;" width="6" x="231" y="254.4531"/><text fill="#000000" font-family="sans-serif" font-size="11" lengthAdjust="spacing" textLength="48" x="243" y="261.8721">round : int</text><rect fill="none" height="6" style="stroke:#C82930;stroke-width:1.0;" width="6" x="231" y="268.2891"/><text fill="#000000" font-family="sans-serif" font-size="11" lengthAdjust="spacing" textLength="92" x="243" y="275.708">squares : ISquare[]</text><line style="stroke:#A80036;stroke-width:1.5;" x1="224" x2="340" y1="282.125" y2="282.125"/><ellipse cx="234" cy="293.125" fill="#84BE84" rx="3" ry="3" style="stroke:#038048;stroke-width:1.0;"/><text fill="#000000" font-family="sans-serif" font-size="11" lengthAdjust="spacing" textLength="37" x="243" y="297.5439">Board()</text><ellipse cx="234" cy="306.9609" fill="#84BE84" rx="3" ry="3" style="stroke:#038048;stroke-width:1.0;"/><text fill="#000000" font-family="sans-serif" font-size="11" lengthAdjust="spacing" textLength="61" x="243" y="311.3799">getP_index()</text><ellipse cx="234" cy="320.7969" fill="#84BE84" rx="3" ry="3" style="stroke:#038048;stroke-width:1.0;"/><text fill="#000000" font-family="sans-serif" font-size="11" lengthAdjust="spacing" textLength="59" x="243" y="325.2158">getPlayers()</text><ellipse cx="234" cy="334.6328" fill="#84BE84" rx="3" ry="3" style="stroke:#038048;stroke-width:1.0;"/><text fill="#000000" font-family="sans-serif" font-size="11" lengthAdjust="spacing" textLength="54" x="243" y="339.0518">getRound()</text><ellipse cx="234" cy="348.4688" fill="#84BE84" rx="3" ry="3" style="stroke:#038048;stroke-width:1.0;"/><text fill="#000000" font-family="sans-serif" font-size="11" lengthAdjust="spacing" textLength="64" x="243" y="352.8877">getSquares()</text><ellipse cx="234" cy="362.3047" fill="#84BE84" rx="3" ry="3" style="stroke:#038048;stroke-width:1.0;"/><text fill="#000000" font-family="sans-serif" font-size="11" lengthAdjust="spacing" textLength="28" x="243" y="366.7236">load()</text><ellipse cx="234" cy="376.1406" fill="#84BE84" rx="3" ry="3" style="stroke:#038048;stroke-width:1.0;"/><text fill="#000000" font-family="sans-serif" font-size="11" lengthAdjust="spacing" textLength="32" x="243" y="380.5596">save()</text><ellipse cx="234" cy="389.9766" fill="#84BE84" rx="3" ry="3" style="stroke:#038048;stroke-width:1.0;"/><text fill="#000000" font-family="sans-serif" font-size="11" lengthAdjust="spacing" textLength="61" x="243" y="394.3955">setP_index()</text><ellipse cx="234" cy="403.8125" fill="#84BE84" rx="3" ry="3" style="stroke:#038048;stroke-width:1.0;"/><text fill="#000000" font-family="sans-serif" font-size="11" lengthAdjust="spacing" textLength="54" x="243" y="408.2314">setRound()</text><!--MD5=[86715f2845c48b1c9eaa0e0dc90ca865]
class hk.edu.polyu.comp.comp3211.monopoly.model.Player--><rect codeLine="27" fill="#FEFECE" filter="url(#f1rm9g437st31p)" height="338.5547" id="hk.edu.polyu.comp.comp3211.monopoly.model.Player" style="stroke:#A80036;stroke-width:1.5;" width="131" x="56.5" y="131.2813"/><ellipse cx="100.75" cy="147.2813" fill="#ADD1B2" rx="11" ry="11" style="stroke:#A80036;stroke-width:1.0;"/><path d="M103.5156,143.1563 Q103.6719,142.9375 103.8594,142.8281 Q104.0469,142.7188 104.2656,142.7188 Q104.6406,142.7188 104.875,142.9844 Q105.1094,143.2344 105.1094,143.8438 L105.1094,145.2969 Q105.1094,145.9063 104.875,146.1719 Q104.6406,146.4375 104.2656,146.4375 Q103.9219,146.4375 103.7188,146.2344 Q103.5156,146.0469 103.4063,145.5313 Q103.3594,145.1719 103.1719,144.9844 Q102.8438,144.6094 102.2344,144.3906 Q101.625,144.1719 101,144.1719 Q100.2344,144.1719 99.5938,144.5 Q98.9688,144.8281 98.4688,145.5781 Q97.9844,146.3281 97.9844,147.3594 L97.9844,148.4531 Q97.9844,149.6875 98.875,150.5156 Q99.7656,151.3281 101.3594,151.3281 Q102.2969,151.3281 102.9531,151.0781 Q103.3438,150.9219 103.7656,150.4844 Q104.0313,150.2188 104.1719,150.1406 Q104.3281,150.0625 104.5313,150.0625 Q104.8594,150.0625 105.1094,150.3281 Q105.375,150.5781 105.375,150.9219 Q105.375,151.2656 105.0313,151.6719 Q104.5313,152.25 103.7344,152.5781 Q102.6563,153.0313 101.3594,153.0313 Q99.8438,153.0313 98.6406,152.4063 Q97.6563,151.9063 96.9688,150.8438 Q96.2813,149.7656 96.2813,148.4844 L96.2813,147.3281 Q96.2813,146 96.8906,144.8594 Q97.5156,143.7031 98.6094,143.0938 Q99.7031,142.4688 100.9375,142.4688 Q101.6719,142.4688 102.3125,142.6406 Q102.9688,142.7969 103.5156,143.1563 Z " fill="#000000"/><text fill="#000000" font-family="sans-serif" font-size="12" lengthAdjust="spacing" textLength="34" x="121.25" y="152.1914">Player</text><line style="stroke:#A80036;stroke-width:1.5;" x1="57.5" x2="186.5" y1="163.2813" y2="163.2813"/><polygon fill="none" points="67.5,170.2813,63.5,176.2813,71.5,176.2813" style="stroke:#1963A0;stroke-width:1.0;"/><text fill="#000000" font-family="sans-serif" font-size="11" lengthAdjust="spacing" text-decoration="underline" textLength="64" x="76.5" y="178.7002">SALARY : int</text><rect fill="none" height="6" style="stroke:#C82930;stroke-width:1.0;" width="6" x="64.5" y="185.1172"/><text fill="#000000" font-family="sans-serif" font-size="11" lengthAdjust="spacing" textLength="101" x="76.5" y="192.5361">bankrupted : boolean</text><rect fill="none" height="6" style="stroke:#C82930;stroke-width:1.0;" width="6" x="64.5" y="198.9531"/><text fill="#000000" font-family="sans-serif" font-size="11" lengthAdjust="spacing" textLength="43" x="76.5" y="206.3721">inJail : int</text><rect fill="none" height="6" style="stroke:#C82930;stroke-width:1.0;" width="6" x="64.5" y="212.7891"/><text fill="#000000" font-family="sans-serif" font-size="11" lengthAdjust="spacing" textLength="52" x="76.5" y="220.208">money : int</text><rect fill="none" height="6" style="stroke:#C82930;stroke-width:1.0;" width="6" x="64.5" y="226.625"/><text fill="#000000" font-family="sans-serif" font-size="11" lengthAdjust="spacing" textLength="63" x="76.5" y="234.0439">name : String</text><rect fill="none" height="6" style="stroke:#C82930;stroke-width:1.0;" width="6" x="64.5" y="240.4609"/><text fill="#000000" font-family="sans-serif" font-size="11" lengthAdjust="spacing" textLength="57" x="76.5" y="247.8799">position : int</text><rect fill="none" height="6" style="stroke:#C82930;stroke-width:1.0;" width="6" x="64.5" y="254.2969"/><text fill="#000000" font-family="sans-serif" font-size="11" lengthAdjust="spacing" textLength="105" x="76.5" y="261.7158">properties : Property[]</text><line style="stroke:#A80036;stroke-width:1.5;" x1="57.5" x2="186.5" y1="268.1328" y2="268.1328"/><ellipse cx="67.5" cy="279.1328" fill="#84BE84" rx="3" ry="3" style="stroke:#038048;stroke-width:1.0;"/><text fill="#000000" font-family="sans-serif" font-size="11" lengthAdjust="spacing" textLength="38" x="76.5" y="283.5518">Player()</text><ellipse cx="67.5" cy="292.9688" fill="#84BE84" rx="3" ry="3" style="stroke:#038048;stroke-width:1.0;"/><text fill="#000000" font-family="sans-serif" font-size="11" lengthAdjust="spacing" textLength="50" x="76.5" y="297.3877">bankrupt()</text><ellipse cx="67.5" cy="306.8047" fill="#84BE84" rx="3" ry="3" style="stroke:#038048;stroke-width:1.0;"/><text fill="#000000" font-family="sans-serif" font-size="11" lengthAdjust="spacing" textLength="46" x="76.5" y="311.2236">getInJail()</text><ellipse cx="67.5" cy="320.6406" fill="#84BE84" rx="3" ry="3" style="stroke:#038048;stroke-width:1.0;"/><text fill="#000000" font-family="sans-serif" font-size="11" lengthAdjust="spacing" textLength="55" x="76.5" y="325.0596">getMoney()</text><ellipse cx="67.5" cy="334.4766" fill="#84BE84" rx="3" ry="3" style="stroke:#038048;stroke-width:1.0;"/><text fill="#000000" font-family="sans-serif" font-size="11" lengthAdjust="spacing" textLength="50" x="76.5" y="338.8955">getName()</text><ellipse cx="67.5" cy="348.3125" fill="#84BE84" rx="3" ry="3" style="stroke:#038048;stroke-width:1.0;"/><text fill="#000000" font-family="sans-serif" font-size="11" lengthAdjust="spacing" textLength="60" x="76.5" y="352.7314">getPosition()</text><ellipse cx="67.5" cy="362.1484" fill="#84BE84" rx="3" ry="3" style="stroke:#038048;stroke-width:1.0;"/><text fill="#000000" font-family="sans-serif" font-size="11" lengthAdjust="spacing" textLength="47" x="76.5" y="366.5674">goToJail()</text><ellipse cx="67.5" cy="375.9844" fill="#84BE84" rx="3" ry="3" style="stroke:#038048;stroke-width:1.0;"/><text fill="#000000" font-family="sans-serif" font-size="11" lengthAdjust="spacing" textLength="71" x="76.5" y="380.4033">isBankrupted()</text><ellipse cx="67.5" cy="389.8203" fill="#84BE84" rx="3" ry="3" style="stroke:#038048;stroke-width:1.0;"/><text fill="#000000" font-family="sans-serif" font-size="11" lengthAdjust="spacing" textLength="34" x="76.5" y="394.2393">move()</text><ellipse cx="67.5" cy="403.6563" fill="#84BE84" rx="3" ry="3" style="stroke:#038048;stroke-width:1.0;"/><text fill="#000000" font-family="sans-serif" font-size="11" lengthAdjust="spacing" textLength="43" x="76.5" y="408.0752">rollDice()</text><ellipse cx="67.5" cy="417.4922" fill="#84BE84" rx="3" ry="3" style="stroke:#038048;stroke-width:1.0;"/><text fill="#000000" font-family="sans-serif" font-size="11" lengthAdjust="spacing" textLength="46" x="76.5" y="421.9111">setInJail()</text><ellipse cx="67.5" cy="431.3281" fill="#84BE84" rx="3" ry="3" style="stroke:#038048;stroke-width:1.0;"/><text fill="#000000" font-family="sans-serif" font-size="11" lengthAdjust="spacing" textLength="55" x="76.5" y="435.7471">setMoney()</text><ellipse cx="67.5" cy="445.1641" fill="#84BE84" rx="3" ry="3" style="stroke:#038048;stroke-width:1.0;"/><text fill="#000000" font-family="sans-serif" font-size="11" lengthAdjust="spacing" textLength="50" x="76.5" y="449.583">setName()</text><ellipse cx="67.5" cy="459" fill="#84BE84" rx="3" ry="3" style="stroke:#038048;stroke-width:1.0;"/><text fill="#000000" font-family="sans-serif" font-size="11" lengthAdjust="spacing" textLength="60" x="76.5" y="463.4189">setPosition()</text><text fill="#888888" font-family="sans-serif" font-size="10" lengthAdjust="spacing" textLength="0" x="385" y="526.6621"/><text fill="#888888" font-family="sans-serif" font-size="10" lengthAdjust="spacing" textLength="0" x="385" y="539.2402"/><text fill="#888888" font-family="sans-serif" font-size="10" lengthAdjust="spacing" textLength="336" x="49" y="551.8184">COMP3211 Software Engineering Course Project: Monopoly, 2021 Fall</text><text fill="#888888" font-family="sans-serif" font-size="10" lengthAdjust="spacing" textLength="302" x="83" y="564.3965">by Group 22: MAN Furui, LIU Sicheng, WANG Meng, XING Shiji</text><!--MD5=[51752b5bb089fc044451da0603648a89]
@startuml

title __MODEL's Class Diagram__\n

  namespace hk.edu.polyu.comp.comp3211.monopoly {
    namespace model {
      class hk.edu.polyu.comp.comp3211.monopoly.model.Board {
          - p_index : int
          - players : Player[]
          - round : int
          - squares : ISquare[]
          + Board()
          + getP_index()
          + getPlayers()
          + getRound()
          + getSquares()
          + load()
          + save()
          + setP_index()
          + setRound()
      }
    }
  }
  

  namespace hk.edu.polyu.comp.comp3211.monopoly {
    namespace model {
      class hk.edu.polyu.comp.comp3211.monopoly.model.Player {
          {static} ~ SALARY : int
          - bankrupted : boolean
          - inJail : int
          - money : int
          - name : String
          - position : int
          - properties : Property[]
          + Player()
          + bankrupt()
          + getInJail()
          + getMoney()
          + getName()
          + getPosition()
          + goToJail()
          + isBankrupted()
          + move()
          + rollDice()
          + setInJail()
          + setMoney()
          + setName()
          + setPosition()
      }
    }
  }
  



right footer


COMP3211 Software Engineering Course Project: Monopoly, 2021 Fall
by Group 22: MAN Furui, LIU Sicheng, WANG Meng, XING Shiji
endfooter

@enduml

PlantUML version 1.2021.4(Sun Apr 04 16:49:39 HKT 2021)
(GPL source distribution)
Java Runtime: Java(TM) SE Runtime Environment
JVM: Java HotSpot(TM) 64-Bit Server VM
Default Encoding: Cp1252
Language: en
Country: US
--></g></svg>