<?xml version="1.0" encoding="UTF-8" standalone="no"?><svg xmlns="http://www.w3.org/2000/svg" xmlns:xlink="http://www.w3.org/1999/xlink" contentScriptType="application/ecmascript" contentStyleType="text/css" height="971px" preserveAspectRatio="none" style="width:869px;height:971px;" version="1.1" viewBox="0 0 869 971" width="869px" zoomAndPan="magnify"><defs><filter height="300%" id="f15qczebc8nm99" width="300%" x="-1" y="-1"><feGaussianBlur result="blurOut" stdDeviation="2.0"/><feColorMatrix in="blurOut" result="blurOut2" type="matrix" values="0 0 0 0 0 0 0 0 0 0 0 0 0 0 0 0 0 0 .4 0"/><feOffset dx="4.0" dy="4.0" in="blurOut2" result="blurOut3"/><feBlend in="SourceGraphic" in2="blurOut3" mode="normal"/></filter></defs><g><text fill="#000000" font-family="sans-serif" font-size="18" lengthAdjust="spacing" text-decoration="underline" textLength="238" x="309" y="18.6855">MONOPOLY's Class Diagram</text><text fill="#000000" font-family="sans-serif" font-size="18" lengthAdjust="spacing" textLength="0" x="430.5" y="41.3262"/><!--MD5=[5508ff9bbedac472b1f23f1d1e06e5c5]
cluster hk.edu.polyu.comp.comp3211.monopoly--><polygon fill="#FFFFFF" filter="url(#f15qczebc8nm99)" points="16,51.2813,300,51.2813,307,74.8906,852,74.8906,852,909.2813,16,909.2813,16,51.2813" style="stroke:#000000;stroke-width:1.5;"/><line style="stroke:#000000;stroke-width:1.5;" x1="16" x2="307" y1="74.8906" y2="74.8906"/><text fill="#000000" font-family="sans-serif" font-size="14" font-weight="bold" lengthAdjust="spacing" textLength="278" x="20" y="67.8145">hk.edu.polyu.comp.comp3211.monopoly</text><!--MD5=[150a38e87f15417bb9c0fe5e887a5061]
cluster hk.edu.polyu.comp.comp3211.monopoly.controller--><polygon fill="#FFFFFF" filter="url(#f15qczebc8nm99)" points="106,95.2813,181,95.2813,188,118.8906,450,118.8906,450,304.2813,106,304.2813,106,95.2813" style="stroke:#000000;stroke-width:1.5;"/><line style="stroke:#000000;stroke-width:1.5;" x1="106" x2="188" y1="118.8906" y2="118.8906"/><text fill="#000000" font-family="sans-serif" font-size="14" font-weight="bold" lengthAdjust="spacing" textLength="69" x="110" y="111.8145">controller</text><!--MD5=[e0d38505e61bf288b3ba973930295e9b]
cluster hk.edu.polyu.comp.comp3211.monopoly.model--><polygon fill="#FFFFFF" filter="url(#f15qczebc8nm99)" points="40,504.2813,89,504.2813,96,527.8906,828,527.8906,828,885.2813,40,885.2813,40,504.2813" style="stroke:#000000;stroke-width:1.5;"/><line style="stroke:#000000;stroke-width:1.5;" x1="40" x2="96" y1="527.8906" y2="527.8906"/><text fill="#000000" font-family="sans-serif" font-size="14" font-weight="bold" lengthAdjust="spacing" textLength="43" x="44" y="520.8145">model</text><!--MD5=[e1bc81e4763b4f0c877d6c7bfb2a0827]
cluster hk.edu.polyu.comp.comp3211.monopoly.model.squares--><polygon fill="#FFFFFF" filter="url(#f15qczebc8nm99)" points="138,548.2813,201,548.2813,208,571.8906,804,571.8906,804,757.2813,138,757.2813,138,548.2813" style="stroke:#000000;stroke-width:1.5;"/><line style="stroke:#000000;stroke-width:1.5;" x1="138" x2="208" y1="571.8906" y2="571.8906"/><text fill="#000000" font-family="sans-serif" font-size="14" font-weight="bold" lengthAdjust="spacing" textLength="57" x="142" y="564.8145">squares</text><!--MD5=[975ca0cb6ea56eddfec2f457787041d8]
cluster hk.edu.polyu.comp.comp3211.monopoly.view--><polygon fill="#FFFFFF" filter="url(#f15qczebc8nm99)" points="206,354.2813,245,354.2813,252,377.8906,306,377.8906,306,454.2813,206,454.2813,206,354.2813" style="stroke:#000000;stroke-width:1.5;"/><line style="stroke:#000000;stroke-width:1.5;" x1="206" x2="252" y1="377.8906" y2="377.8906"/><text fill="#000000" font-family="sans-serif" font-size="14" font-weight="bold" lengthAdjust="spacing" textLength="33" x="210" y="370.8145">view</text><!--MD5=[2cf4d514a63cb25f27013a58b1dab31b]
class hk.edu.polyu.comp.comp3211.monopoly.Main--><rect codeLine="5" fill="#FEFECE" filter="url(#f15qczebc8nm99)" height="48" id="hk.edu.polyu.comp.comp3211.monopoly.Main" style="stroke:#A80036;stroke-width:1.5;" width="58" x="32" y="131.2813"/><ellipse cx="47" cy="147.2813" fill="#ADD1B2" rx="11" ry="11" style="stroke:#A80036;stroke-width:1.0;"/><path d="M49.7656,143.1563 Q49.9219,142.9375 50.1094,142.8281 Q50.2969,142.7188 50.5156,142.7188 Q50.8906,142.7188 51.125,142.9844 Q51.3594,143.2344 51.3594,143.8438 L51.3594,145.2969 Q51.3594,145.9063 51.125,146.1719 Q50.8906,146.4375 50.5156,146.4375 Q50.1719,146.4375 49.9688,146.2344 Q49.7656,146.0469 49.6563,145.5313 Q49.6094,145.1719 49.4219,144.9844 Q49.0938,144.6094 48.4844,144.3906 Q47.875,144.1719 47.25,144.1719 Q46.4844,144.1719 45.8438,144.5 Q45.2188,144.8281 44.7188,145.5781 Q44.2344,146.3281 44.2344,147.3594 L44.2344,148.4531 Q44.2344,149.6875 45.125,150.5156 Q46.0156,151.3281 47.6094,151.3281 Q48.5469,151.3281 49.2031,151.0781 Q49.5938,150.9219 50.0156,150.4844 Q50.2813,150.2188 50.4219,150.1406 Q50.5781,150.0625 50.7813,150.0625 Q51.1094,150.0625 51.3594,150.3281 Q51.625,150.5781 51.625,150.9219 Q51.625,151.2656 51.2813,151.6719 Q50.7813,152.25 49.9844,152.5781 Q48.9063,153.0313 47.6094,153.0313 Q46.0938,153.0313 44.8906,152.4063 Q43.9063,151.9063 43.2188,150.8438 Q42.5313,149.7656 42.5313,148.4844 L42.5313,147.3281 Q42.5313,146 43.1406,144.8594 Q43.7656,143.7031 44.8594,143.0938 Q45.9531,142.4688 47.1875,142.4688 Q47.9219,142.4688 48.5625,142.6406 Q49.2188,142.7969 49.7656,143.1563 Z " fill="#000000"/><text fill="#000000" font-family="sans-serif" font-size="12" lengthAdjust="spacing" textLength="26" x="61" y="152.1914">Main</text><line style="stroke:#A80036;stroke-width:1.5;" x1="33" x2="89" y1="163.2813" y2="163.2813"/><line style="stroke:#A80036;stroke-width:1.5;" x1="33" x2="89" y1="171.2813" y2="171.2813"/><!--MD5=[1ee5cd33b28897eb7e78ce34c8956e9c]
class hk.edu.polyu.comp.comp3211.monopoly.controller.EndGame--><rect codeLine="12" fill="#FEFECE" filter="url(#f15qczebc8nm99)" height="48" id="hk.edu.polyu.comp.comp3211.monopoly.controller.EndGame" style="stroke:#A80036;stroke-width:1.5;" width="88" x="122" y="240.2813"/><ellipse cx="137" cy="256.2813" fill="#ADD1B2" rx="11" ry="11" style="stroke:#A80036;stroke-width:1.0;"/><path d="M139.7656,252.1563 Q139.9219,251.9375 140.1094,251.8281 Q140.2969,251.7188 140.5156,251.7188 Q140.8906,251.7188 141.125,251.9844 Q141.3594,252.2344 141.3594,252.8438 L141.3594,254.2969 Q141.3594,254.9063 141.125,255.1719 Q140.8906,255.4375 140.5156,255.4375 Q140.1719,255.4375 139.9688,255.2344 Q139.7656,255.0469 139.6563,254.5313 Q139.6094,254.1719 139.4219,253.9844 Q139.0938,253.6094 138.4844,253.3906 Q137.875,253.1719 137.25,253.1719 Q136.4844,253.1719 135.8438,253.5 Q135.2188,253.8281 134.7188,254.5781 Q134.2344,255.3281 134.2344,256.3594 L134.2344,257.4531 Q134.2344,258.6875 135.125,259.5156 Q136.0156,260.3281 137.6094,260.3281 Q138.5469,260.3281 139.2031,260.0781 Q139.5938,259.9219 140.0156,259.4844 Q140.2813,259.2188 140.4219,259.1406 Q140.5781,259.0625 140.7813,259.0625 Q141.1094,259.0625 141.3594,259.3281 Q141.625,259.5781 141.625,259.9219 Q141.625,260.2656 141.2813,260.6719 Q140.7813,261.25 139.9844,261.5781 Q138.9063,262.0313 137.6094,262.0313 Q136.0938,262.0313 134.8906,261.4063 Q133.9063,260.9063 133.2188,259.8438 Q132.5313,258.7656 132.5313,257.4844 L132.5313,256.3281 Q132.5313,255 133.1406,253.8594 Q133.7656,252.7031 134.8594,252.0938 Q135.9531,251.4688 137.1875,251.4688 Q137.9219,251.4688 138.5625,251.6406 Q139.2188,251.7969 139.7656,252.1563 Z " fill="#000000"/><text fill="#000000" font-family="sans-serif" font-size="12" lengthAdjust="spacing" textLength="56" x="151" y="261.1914">EndGame</text><line style="stroke:#A80036;stroke-width:1.5;" x1="123" x2="209" y1="272.2813" y2="272.2813"/><line style="stroke:#A80036;stroke-width:1.5;" x1="123" x2="209" y1="280.2813" y2="280.2813"/><!--MD5=[cd7c88cfe1718b47eede6a9eeb39f121]
class hk.edu.polyu.comp.comp3211.monopoly.controller.Game--><rect codeLine="20" fill="#FEFECE" filter="url(#f15qczebc8nm99)" height="48" id="hk.edu.polyu.comp.comp3211.monopoly.controller.Game" style="stroke:#A80036;stroke-width:1.5;" width="66" x="245" y="240.2813"/><ellipse cx="260" cy="256.2813" fill="#ADD1B2" rx="11" ry="11" style="stroke:#A80036;stroke-width:1.0;"/><path d="M262.7656,252.1563 Q262.9219,251.9375 263.1094,251.8281 Q263.2969,251.7188 263.5156,251.7188 Q263.8906,251.7188 264.125,251.9844 Q264.3594,252.2344 264.3594,252.8438 L264.3594,254.2969 Q264.3594,254.9063 264.125,255.1719 Q263.8906,255.4375 263.5156,255.4375 Q263.1719,255.4375 262.9688,255.2344 Q262.7656,255.0469 262.6563,254.5313 Q262.6094,254.1719 262.4219,253.9844 Q262.0938,253.6094 261.4844,253.3906 Q260.875,253.1719 260.25,253.1719 Q259.4844,253.1719 258.8438,253.5 Q258.2188,253.8281 257.7188,254.5781 Q257.2344,255.3281 257.2344,256.3594 L257.2344,257.4531 Q257.2344,258.6875 258.125,259.5156 Q259.0156,260.3281 260.6094,260.3281 Q261.5469,260.3281 262.2031,260.0781 Q262.5938,259.9219 263.0156,259.4844 Q263.2813,259.2188 263.4219,259.1406 Q263.5781,259.0625 263.7813,259.0625 Q264.1094,259.0625 264.3594,259.3281 Q264.625,259.5781 264.625,259.9219 Q264.625,260.2656 264.2813,260.6719 Q263.7813,261.25 262.9844,261.5781 Q261.9063,262.0313 260.6094,262.0313 Q259.0938,262.0313 257.8906,261.4063 Q256.9063,260.9063 256.2188,259.8438 Q255.5313,258.7656 255.5313,257.4844 L255.5313,256.3281 Q255.5313,255 256.1406,253.8594 Q256.7656,252.7031 257.8594,252.0938 Q258.9531,251.4688 260.1875,251.4688 Q260.9219,251.4688 261.5625,251.6406 Q262.2188,251.7969 262.7656,252.1563 Z " fill="#000000"/><text fill="#000000" font-family="sans-serif" font-size="12" lengthAdjust="spacing" textLength="34" x="274" y="261.1914">Game</text><line style="stroke:#A80036;stroke-width:1.5;" x1="246" x2="310" y1="272.2813" y2="272.2813"/><line style="stroke:#A80036;stroke-width:1.5;" x1="246" x2="310" y1="280.2813" y2="280.2813"/><!--MD5=[d0190fa42217252e2a7cbc38da320349]
class hk.edu.polyu.comp.comp3211.monopoly.controller.IBase--><rect codeLine="28" fill="#FEFECE" filter="url(#f15qczebc8nm99)" height="48" id="hk.edu.polyu.comp.comp3211.monopoly.controller.IBase" style="stroke:#A80036;stroke-width:1.5;" width="64" x="246" y="131.2813"/><ellipse cx="261" cy="147.2813" fill="#B4A7E5" rx="11" ry="11" style="stroke:#A80036;stroke-width:1.0;"/><path d="M261.9531,143.9219 L261.9531,150.5781 L263.6719,150.5781 Q264.2813,150.5781 264.5469,150.8125 Q264.8125,151.0469 264.8125,151.4375 Q264.8125,151.8125 264.5469,152.0469 Q264.2813,152.2813 263.6719,152.2813 L258.5313,152.2813 Q257.9219,152.2813 257.6563,152.0469 Q257.3906,151.8125 257.3906,151.4219 Q257.3906,151.0469 257.6563,150.8125 Q257.9219,150.5781 258.5313,150.5781 L260.25,150.5781 L260.25,143.9219 L258.5313,143.9219 Q257.9219,143.9219 257.6563,143.6875 Q257.3906,143.4531 257.3906,143.0625 Q257.3906,142.6875 257.6563,142.4531 Q257.9219,142.2188 258.5313,142.2188 L263.6719,142.2188 Q264.2813,142.2188 264.5469,142.4531 Q264.8125,142.6875 264.8125,143.0625 Q264.8125,143.4531 264.5469,143.6875 Q264.2813,143.9219 263.6719,143.9219 L261.9531,143.9219 Z " fill="#000000"/><text fill="#000000" font-family="sans-serif" font-size="12" font-style="italic" lengthAdjust="spacing" textLength="32" x="275" y="152.1914">IBase</text><line style="stroke:#A80036;stroke-width:1.5;" x1="247" x2="309" y1="163.2813" y2="163.2813"/><line style="stroke:#A80036;stroke-width:1.5;" x1="247" x2="309" y1="171.2813" y2="171.2813"/><!--MD5=[02d3cba28abe8a89ef6dd5030aa65b93]
class hk.edu.polyu.comp.comp3211.monopoly.controller.StartMenu--><rect codeLine="36" fill="#FEFECE" filter="url(#f15qczebc8nm99)" height="48" id="hk.edu.polyu.comp.comp3211.monopoly.controller.StartMenu" style="stroke:#A80036;stroke-width:1.5;" width="87" x="346.5" y="240.2813"/><ellipse cx="361.5" cy="256.2813" fill="#ADD1B2" rx="11" ry="11" style="stroke:#A80036;stroke-width:1.0;"/><path d="M364.2656,252.1563 Q364.4219,251.9375 364.6094,251.8281 Q364.7969,251.7188 365.0156,251.7188 Q365.3906,251.7188 365.625,251.9844 Q365.8594,252.2344 365.8594,252.8438 L365.8594,254.2969 Q365.8594,254.9063 365.625,255.1719 Q365.3906,255.4375 365.0156,255.4375 Q364.6719,255.4375 364.4688,255.2344 Q364.2656,255.0469 364.1563,254.5313 Q364.1094,254.1719 363.9219,253.9844 Q363.5938,253.6094 362.9844,253.3906 Q362.375,253.1719 361.75,253.1719 Q360.9844,253.1719 360.3438,253.5 Q359.7188,253.8281 359.2188,254.5781 Q358.7344,255.3281 358.7344,256.3594 L358.7344,257.4531 Q358.7344,258.6875 359.625,259.5156 Q360.5156,260.3281 362.1094,260.3281 Q363.0469,260.3281 363.7031,260.0781 Q364.0938,259.9219 364.5156,259.4844 Q364.7813,259.2188 364.9219,259.1406 Q365.0781,259.0625 365.2813,259.0625 Q365.6094,259.0625 365.8594,259.3281 Q366.125,259.5781 366.125,259.9219 Q366.125,260.2656 365.7813,260.6719 Q365.2813,261.25 364.4844,261.5781 Q363.4063,262.0313 362.1094,262.0313 Q360.5938,262.0313 359.3906,261.4063 Q358.4063,260.9063 357.7188,259.8438 Q357.0313,258.7656 357.0313,257.4844 L357.0313,256.3281 Q357.0313,255 357.6406,253.8594 Q358.2656,252.7031 359.3594,252.0938 Q360.4531,251.4688 361.6875,251.4688 Q362.4219,251.4688 363.0625,251.6406 Q363.7188,251.7969 364.2656,252.1563 Z " fill="#000000"/><text fill="#000000" font-family="sans-serif" font-size="12" lengthAdjust="spacing" textLength="55" x="375.5" y="261.1914">StartMenu</text><line style="stroke:#A80036;stroke-width:1.5;" x1="347.5" x2="432.5" y1="272.2813" y2="272.2813"/><line style="stroke:#A80036;stroke-width:1.5;" x1="347.5" x2="432.5" y1="280.2813" y2="280.2813"/><!--MD5=[fb9a7c962297ff12a4d5b142d4389831]
class hk.edu.polyu.comp.comp3211.monopoly.model.Board--><rect codeLine="44" fill="#FEFECE" filter="url(#f15qczebc8nm99)" height="48" id="hk.edu.polyu.comp.comp3211.monopoly.model.Board" style="stroke:#A80036;stroke-width:1.5;" width="65" x="56.5" y="584.2813"/><ellipse cx="71.5" cy="600.2813" fill="#ADD1B2" rx="11" ry="11" style="stroke:#A80036;stroke-width:1.0;"/><path d="M74.2656,596.1563 Q74.4219,595.9375 74.6094,595.8281 Q74.7969,595.7188 75.0156,595.7188 Q75.3906,595.7188 75.625,595.9844 Q75.8594,596.2344 75.8594,596.8438 L75.8594,598.2969 Q75.8594,598.9063 75.625,599.1719 Q75.3906,599.4375 75.0156,599.4375 Q74.6719,599.4375 74.4688,599.2344 Q74.2656,599.0469 74.1563,598.5313 Q74.1094,598.1719 73.9219,597.9844 Q73.5938,597.6094 72.9844,597.3906 Q72.375,597.1719 71.75,597.1719 Q70.9844,597.1719 70.3438,597.5 Q69.7188,597.8281 69.2188,598.5781 Q68.7344,599.3281 68.7344,600.3594 L68.7344,601.4531 Q68.7344,602.6875 69.625,603.5156 Q70.5156,604.3281 72.1094,604.3281 Q73.0469,604.3281 73.7031,604.0781 Q74.0938,603.9219 74.5156,603.4844 Q74.7813,603.2188 74.9219,603.1406 Q75.0781,603.0625 75.2813,603.0625 Q75.6094,603.0625 75.8594,603.3281 Q76.125,603.5781 76.125,603.9219 Q76.125,604.2656 75.7813,604.6719 Q75.2813,605.25 74.4844,605.5781 Q73.4063,606.0313 72.1094,606.0313 Q70.5938,606.0313 69.3906,605.4063 Q68.4063,604.9063 67.7188,603.8438 Q67.0313,602.7656 67.0313,601.4844 L67.0313,600.3281 Q67.0313,599 67.6406,597.8594 Q68.2656,596.7031 69.3594,596.0938 Q70.4531,595.4688 71.6875,595.4688 Q72.4219,595.4688 73.0625,595.6406 Q73.7188,595.7969 74.2656,596.1563 Z " fill="#000000"/><text fill="#000000" font-family="sans-serif" font-size="12" lengthAdjust="spacing" textLength="33" x="85.5" y="605.1914">Board</text><line style="stroke:#A80036;stroke-width:1.5;" x1="57.5" x2="120.5" y1="616.2813" y2="616.2813"/><line style="stroke:#A80036;stroke-width:1.5;" x1="57.5" x2="120.5" y1="624.2813" y2="624.2813"/><!--MD5=[86715f2845c48b1c9eaa0e0dc90ca865]
class hk.edu.polyu.comp.comp3211.monopoly.model.Player--><rect codeLine="52" fill="#FEFECE" filter="url(#f15qczebc8nm99)" height="48" id="hk.edu.polyu.comp.comp3211.monopoly.model.Player" style="stroke:#A80036;stroke-width:1.5;" width="66" x="630" y="821.2813"/><ellipse cx="645" cy="837.2813" fill="#ADD1B2" rx="11" ry="11" style="stroke:#A80036;stroke-width:1.0;"/><path d="M647.7656,833.1563 Q647.9219,832.9375 648.1094,832.8281 Q648.2969,832.7188 648.5156,832.7188 Q648.8906,832.7188 649.125,832.9844 Q649.3594,833.2344 649.3594,833.8438 L649.3594,835.2969 Q649.3594,835.9063 649.125,836.1719 Q648.8906,836.4375 648.5156,836.4375 Q648.1719,836.4375 647.9688,836.2344 Q647.7656,836.0469 647.6563,835.5313 Q647.6094,835.1719 647.4219,834.9844 Q647.0938,834.6094 646.4844,834.3906 Q645.875,834.1719 645.25,834.1719 Q644.4844,834.1719 643.8438,834.5 Q643.2188,834.8281 642.7188,835.5781 Q642.2344,836.3281 642.2344,837.3594 L642.2344,838.4531 Q642.2344,839.6875 643.125,840.5156 Q644.0156,841.3281 645.6094,841.3281 Q646.5469,841.3281 647.2031,841.0781 Q647.5938,840.9219 648.0156,840.4844 Q648.2813,840.2188 648.4219,840.1406 Q648.5781,840.0625 648.7813,840.0625 Q649.1094,840.0625 649.3594,840.3281 Q649.625,840.5781 649.625,840.9219 Q649.625,841.2656 649.2813,841.6719 Q648.7813,842.25 647.9844,842.5781 Q646.9063,843.0313 645.6094,843.0313 Q644.0938,843.0313 642.8906,842.4063 Q641.9063,841.9063 641.2188,840.8438 Q640.5313,839.7656 640.5313,838.4844 L640.5313,837.3281 Q640.5313,836 641.1406,834.8594 Q641.7656,833.7031 642.8594,833.0938 Q643.9531,832.4688 645.1875,832.4688 Q645.9219,832.4688 646.5625,832.6406 Q647.2188,832.7969 647.7656,833.1563 Z " fill="#000000"/><text fill="#000000" font-family="sans-serif" font-size="12" lengthAdjust="spacing" textLength="34" x="659" y="842.1914">Player</text><line style="stroke:#A80036;stroke-width:1.5;" x1="631" x2="695" y1="853.2813" y2="853.2813"/><line style="stroke:#A80036;stroke-width:1.5;" x1="631" x2="695" y1="861.2813" y2="861.2813"/><!--MD5=[206485ef97f1181ddf52c5e244d8d733]
class hk.edu.polyu.comp.comp3211.monopoly.model.squares.Chance--><rect codeLine="61" fill="#FEFECE" filter="url(#f15qczebc8nm99)" height="48" id="hk.edu.polyu.comp.comp3211.monopoly.model.squares.Chance" style="stroke:#A80036;stroke-width:1.5;" width="75" x="154.5" y="693.2813"/><ellipse cx="169.5" cy="709.2813" fill="#ADD1B2" rx="11" ry="11" style="stroke:#A80036;stroke-width:1.0;"/><path d="M172.2656,705.1563 Q172.4219,704.9375 172.6094,704.8281 Q172.7969,704.7188 173.0156,704.7188 Q173.3906,704.7188 173.625,704.9844 Q173.8594,705.2344 173.8594,705.8438 L173.8594,707.2969 Q173.8594,707.9063 173.625,708.1719 Q173.3906,708.4375 173.0156,708.4375 Q172.6719,708.4375 172.4688,708.2344 Q172.2656,708.0469 172.1563,707.5313 Q172.1094,707.1719 171.9219,706.9844 Q171.5938,706.6094 170.9844,706.3906 Q170.375,706.1719 169.75,706.1719 Q168.9844,706.1719 168.3438,706.5 Q167.7188,706.8281 167.2188,707.5781 Q166.7344,708.3281 166.7344,709.3594 L166.7344,710.4531 Q166.7344,711.6875 167.625,712.5156 Q168.5156,713.3281 170.1094,713.3281 Q171.0469,713.3281 171.7031,713.0781 Q172.0938,712.9219 172.5156,712.4844 Q172.7813,712.2188 172.9219,712.1406 Q173.0781,712.0625 173.2813,712.0625 Q173.6094,712.0625 173.8594,712.3281 Q174.125,712.5781 174.125,712.9219 Q174.125,713.2656 173.7813,713.6719 Q173.2813,714.25 172.4844,714.5781 Q171.4063,715.0313 170.1094,715.0313 Q168.5938,715.0313 167.3906,714.4063 Q166.4063,713.9063 165.7188,712.8438 Q165.0313,711.7656 165.0313,710.4844 L165.0313,709.3281 Q165.0313,708 165.6406,706.8594 Q166.2656,705.7031 167.3594,705.0938 Q168.4531,704.4688 169.6875,704.4688 Q170.4219,704.4688 171.0625,704.6406 Q171.7188,704.7969 172.2656,705.1563 Z " fill="#000000"/><text fill="#000000" font-family="sans-serif" font-size="12" lengthAdjust="spacing" textLength="43" x="183.5" y="714.1914">Chance</text><line style="stroke:#A80036;stroke-width:1.5;" x1="155.5" x2="228.5" y1="725.2813" y2="725.2813"/><line style="stroke:#A80036;stroke-width:1.5;" x1="155.5" x2="228.5" y1="733.2813" y2="733.2813"/><!--MD5=[36d8cc961a5f19c6bf6b56b4f461e103]
class hk.edu.polyu.comp.comp3211.monopoly.model.squares.Free--><rect codeLine="71" fill="#FEFECE" filter="url(#f15qczebc8nm99)" height="48" id="hk.edu.polyu.comp.comp3211.monopoly.model.squares.Free" style="stroke:#A80036;stroke-width:1.5;" width="57" x="264.5" y="693.2813"/><ellipse cx="279.5" cy="709.2813" fill="#ADD1B2" rx="11" ry="11" style="stroke:#A80036;stroke-width:1.0;"/><path d="M282.2656,705.1563 Q282.4219,704.9375 282.6094,704.8281 Q282.7969,704.7188 283.0156,704.7188 Q283.3906,704.7188 283.625,704.9844 Q283.8594,705.2344 283.8594,705.8438 L283.8594,707.2969 Q283.8594,707.9063 283.625,708.1719 Q283.3906,708.4375 283.0156,708.4375 Q282.6719,708.4375 282.4688,708.2344 Q282.2656,708.0469 282.1563,707.5313 Q282.1094,707.1719 281.9219,706.9844 Q281.5938,706.6094 280.9844,706.3906 Q280.375,706.1719 279.75,706.1719 Q278.9844,706.1719 278.3438,706.5 Q277.7188,706.8281 277.2188,707.5781 Q276.7344,708.3281 276.7344,709.3594 L276.7344,710.4531 Q276.7344,711.6875 277.625,712.5156 Q278.5156,713.3281 280.1094,713.3281 Q281.0469,713.3281 281.7031,713.0781 Q282.0938,712.9219 282.5156,712.4844 Q282.7813,712.2188 282.9219,712.1406 Q283.0781,712.0625 283.2813,712.0625 Q283.6094,712.0625 283.8594,712.3281 Q284.125,712.5781 284.125,712.9219 Q284.125,713.2656 283.7813,713.6719 Q283.2813,714.25 282.4844,714.5781 Q281.4063,715.0313 280.1094,715.0313 Q278.5938,715.0313 277.3906,714.4063 Q276.4063,713.9063 275.7188,712.8438 Q275.0313,711.7656 275.0313,710.4844 L275.0313,709.3281 Q275.0313,708 275.6406,706.8594 Q276.2656,705.7031 277.3594,705.0938 Q278.4531,704.4688 279.6875,704.4688 Q280.4219,704.4688 281.0625,704.6406 Q281.7188,704.7969 282.2656,705.1563 Z " fill="#000000"/><text fill="#000000" font-family="sans-serif" font-size="12" lengthAdjust="spacing" textLength="25" x="293.5" y="714.1914">Free</text><line style="stroke:#A80036;stroke-width:1.5;" x1="265.5" x2="320.5" y1="725.2813" y2="725.2813"/><line style="stroke:#A80036;stroke-width:1.5;" x1="265.5" x2="320.5" y1="733.2813" y2="733.2813"/><!--MD5=[37a71ac37b74dd9187bf3b64a88abdb7]
class hk.edu.polyu.comp.comp3211.monopoly.model.squares.Go--><rect codeLine="81" fill="#FEFECE" filter="url(#f15qczebc8nm99)" height="48" id="hk.edu.polyu.comp.comp3211.monopoly.model.squares.Go" style="stroke:#A80036;stroke-width:1.5;" width="48" x="357" y="693.2813"/><ellipse cx="372" cy="709.2813" fill="#ADD1B2" rx="11" ry="11" style="stroke:#A80036;stroke-width:1.0;"/><path d="M374.7656,705.1563 Q374.9219,704.9375 375.1094,704.8281 Q375.2969,704.7188 375.5156,704.7188 Q375.8906,704.7188 376.125,704.9844 Q376.3594,705.2344 376.3594,705.8438 L376.3594,707.2969 Q376.3594,707.9063 376.125,708.1719 Q375.8906,708.4375 375.5156,708.4375 Q375.1719,708.4375 374.9688,708.2344 Q374.7656,708.0469 374.6563,707.5313 Q374.6094,707.1719 374.4219,706.9844 Q374.0938,706.6094 373.4844,706.3906 Q372.875,706.1719 372.25,706.1719 Q371.4844,706.1719 370.8438,706.5 Q370.2188,706.8281 369.7188,707.5781 Q369.2344,708.3281 369.2344,709.3594 L369.2344,710.4531 Q369.2344,711.6875 370.125,712.5156 Q371.0156,713.3281 372.6094,713.3281 Q373.5469,713.3281 374.2031,713.0781 Q374.5938,712.9219 375.0156,712.4844 Q375.2813,712.2188 375.4219,712.1406 Q375.5781,712.0625 375.7813,712.0625 Q376.1094,712.0625 376.3594,712.3281 Q376.625,712.5781 376.625,712.9219 Q376.625,713.2656 376.2813,713.6719 Q375.7813,714.25 374.9844,714.5781 Q373.9063,715.0313 372.6094,715.0313 Q371.0938,715.0313 369.8906,714.4063 Q368.9063,713.9063 368.2188,712.8438 Q367.5313,711.7656 367.5313,710.4844 L367.5313,709.3281 Q367.5313,708 368.1406,706.8594 Q368.7656,705.7031 369.8594,705.0938 Q370.9531,704.4688 372.1875,704.4688 Q372.9219,704.4688 373.5625,704.6406 Q374.2188,704.7969 374.7656,705.1563 Z " fill="#000000"/><text fill="#000000" font-family="sans-serif" font-size="12" lengthAdjust="spacing" textLength="16" x="386" y="714.1914">Go</text><line style="stroke:#A80036;stroke-width:1.5;" x1="358" x2="404" y1="725.2813" y2="725.2813"/><line style="stroke:#A80036;stroke-width:1.5;" x1="358" x2="404" y1="733.2813" y2="733.2813"/><!--MD5=[a12b85af0d3647f221773754022d807a]
class hk.edu.polyu.comp.comp3211.monopoly.model.squares.ISquare--><rect codeLine="91" fill="#FEFECE" filter="url(#f15qczebc8nm99)" height="48" id="hk.edu.polyu.comp.comp3211.monopoly.model.squares.ISquare" style="stroke:#A80036;stroke-width:1.5;" width="76" x="428" y="584.2813"/><ellipse cx="443" cy="600.2813" fill="#B4A7E5" rx="11" ry="11" style="stroke:#A80036;stroke-width:1.0;"/><path d="M443.9531,596.9219 L443.9531,603.5781 L445.6719,603.5781 Q446.2813,603.5781 446.5469,603.8125 Q446.8125,604.0469 446.8125,604.4375 Q446.8125,604.8125 446.5469,605.0469 Q446.2813,605.2813 445.6719,605.2813 L440.5313,605.2813 Q439.9219,605.2813 439.6563,605.0469 Q439.3906,604.8125 439.3906,604.4219 Q439.3906,604.0469 439.6563,603.8125 Q439.9219,603.5781 440.5313,603.5781 L442.25,603.5781 L442.25,596.9219 L440.5313,596.9219 Q439.9219,596.9219 439.6563,596.6875 Q439.3906,596.4531 439.3906,596.0625 Q439.3906,595.6875 439.6563,595.4531 Q439.9219,595.2188 440.5313,595.2188 L445.6719,595.2188 Q446.2813,595.2188 446.5469,595.4531 Q446.8125,595.6875 446.8125,596.0625 Q446.8125,596.4531 446.5469,596.6875 Q446.2813,596.9219 445.6719,596.9219 L443.9531,596.9219 Z " fill="#000000"/><text fill="#000000" font-family="sans-serif" font-size="12" font-style="italic" lengthAdjust="spacing" textLength="44" x="457" y="605.1914">ISquare</text><line style="stroke:#A80036;stroke-width:1.5;" x1="429" x2="503" y1="616.2813" y2="616.2813"/><line style="stroke:#A80036;stroke-width:1.5;" x1="429" x2="503" y1="624.2813" y2="624.2813"/><!--MD5=[5de0e232bac298933147a9f272f92d22]
class hk.edu.polyu.comp.comp3211.monopoly.model.squares.Jail--><rect codeLine="101" fill="#FEFECE" filter="url(#f15qczebc8nm99)" height="48" id="hk.edu.polyu.comp.comp3211.monopoly.model.squares.Jail" style="stroke:#A80036;stroke-width:1.5;" width="51" x="440.5" y="693.2813"/><ellipse cx="455.5" cy="709.2813" fill="#ADD1B2" rx="11" ry="11" style="stroke:#A80036;stroke-width:1.0;"/><path d="M458.2656,705.1563 Q458.4219,704.9375 458.6094,704.8281 Q458.7969,704.7188 459.0156,704.7188 Q459.3906,704.7188 459.625,704.9844 Q459.8594,705.2344 459.8594,705.8438 L459.8594,707.2969 Q459.8594,707.9063 459.625,708.1719 Q459.3906,708.4375 459.0156,708.4375 Q458.6719,708.4375 458.4688,708.2344 Q458.2656,708.0469 458.1563,707.5313 Q458.1094,707.1719 457.9219,706.9844 Q457.5938,706.6094 456.9844,706.3906 Q456.375,706.1719 455.75,706.1719 Q454.9844,706.1719 454.3438,706.5 Q453.7188,706.8281 453.2188,707.5781 Q452.7344,708.3281 452.7344,709.3594 L452.7344,710.4531 Q452.7344,711.6875 453.625,712.5156 Q454.5156,713.3281 456.1094,713.3281 Q457.0469,713.3281 457.7031,713.0781 Q458.0938,712.9219 458.5156,712.4844 Q458.7813,712.2188 458.9219,712.1406 Q459.0781,712.0625 459.2813,712.0625 Q459.6094,712.0625 459.8594,712.3281 Q460.125,712.5781 460.125,712.9219 Q460.125,713.2656 459.7813,713.6719 Q459.2813,714.25 458.4844,714.5781 Q457.4063,715.0313 456.1094,715.0313 Q454.5938,715.0313 453.3906,714.4063 Q452.4063,713.9063 451.7188,712.8438 Q451.0313,711.7656 451.0313,710.4844 L451.0313,709.3281 Q451.0313,708 451.6406,706.8594 Q452.2656,705.7031 453.3594,705.0938 Q454.4531,704.4688 455.6875,704.4688 Q456.4219,704.4688 457.0625,704.6406 Q457.7188,704.7969 458.2656,705.1563 Z " fill="#000000"/><text fill="#000000" font-family="sans-serif" font-size="12" lengthAdjust="spacing" textLength="19" x="469.5" y="714.1914">Jail</text><line style="stroke:#A80036;stroke-width:1.5;" x1="441.5" x2="490.5" y1="725.2813" y2="725.2813"/><line style="stroke:#A80036;stroke-width:1.5;" x1="441.5" x2="490.5" y1="733.2813" y2="733.2813"/><!--MD5=[7a1b9b3d50fa56af4a7f6e3eeb477be1]
class hk.edu.polyu.comp.comp3211.monopoly.model.squares.Oops--><rect codeLine="111" fill="#FEFECE" filter="url(#f15qczebc8nm99)" height="48" id="hk.edu.polyu.comp.comp3211.monopoly.model.squares.Oops" style="stroke:#A80036;stroke-width:1.5;" width="62" x="527" y="693.2813"/><ellipse cx="542" cy="709.2813" fill="#ADD1B2" rx="11" ry="11" style="stroke:#A80036;stroke-width:1.0;"/><path d="M544.7656,705.1563 Q544.9219,704.9375 545.1094,704.8281 Q545.2969,704.7188 545.5156,704.7188 Q545.8906,704.7188 546.125,704.9844 Q546.3594,705.2344 546.3594,705.8438 L546.3594,707.2969 Q546.3594,707.9063 546.125,708.1719 Q545.8906,708.4375 545.5156,708.4375 Q545.1719,708.4375 544.9688,708.2344 Q544.7656,708.0469 544.6563,707.5313 Q544.6094,707.1719 544.4219,706.9844 Q544.0938,706.6094 543.4844,706.3906 Q542.875,706.1719 542.25,706.1719 Q541.4844,706.1719 540.8438,706.5 Q540.2188,706.8281 539.7188,707.5781 Q539.2344,708.3281 539.2344,709.3594 L539.2344,710.4531 Q539.2344,711.6875 540.125,712.5156 Q541.0156,713.3281 542.6094,713.3281 Q543.5469,713.3281 544.2031,713.0781 Q544.5938,712.9219 545.0156,712.4844 Q545.2813,712.2188 545.4219,712.1406 Q545.5781,712.0625 545.7813,712.0625 Q546.1094,712.0625 546.3594,712.3281 Q546.625,712.5781 546.625,712.9219 Q546.625,713.2656 546.2813,713.6719 Q545.7813,714.25 544.9844,714.5781 Q543.9063,715.0313 542.6094,715.0313 Q541.0938,715.0313 539.8906,714.4063 Q538.9063,713.9063 538.2188,712.8438 Q537.5313,711.7656 537.5313,710.4844 L537.5313,709.3281 Q537.5313,708 538.1406,706.8594 Q538.7656,705.7031 539.8594,705.0938 Q540.9531,704.4688 542.1875,704.4688 Q542.9219,704.4688 543.5625,704.6406 Q544.2188,704.7969 544.7656,705.1563 Z " fill="#000000"/><text fill="#000000" font-family="sans-serif" font-size="12" lengthAdjust="spacing" textLength="30" x="556" y="714.1914">Oops</text><line style="stroke:#A80036;stroke-width:1.5;" x1="528" x2="588" y1="725.2813" y2="725.2813"/><line style="stroke:#A80036;stroke-width:1.5;" x1="528" x2="588" y1="733.2813" y2="733.2813"/><!--MD5=[a051352c35eebf593bc7512ad3333030]
class hk.edu.polyu.comp.comp3211.monopoly.model.squares.Property--><rect codeLine="121" fill="#FEFECE" filter="url(#f15qczebc8nm99)" height="48" id="hk.edu.polyu.comp.comp3211.monopoly.model.squares.Property" style="stroke:#A80036;stroke-width:1.5;" width="77" x="624.5" y="693.2813"/><ellipse cx="639.5" cy="709.2813" fill="#ADD1B2" rx="11" ry="11" style="stroke:#A80036;stroke-width:1.0;"/><path d="M642.2656,705.1563 Q642.4219,704.9375 642.6094,704.8281 Q642.7969,704.7188 643.0156,704.7188 Q643.3906,704.7188 643.625,704.9844 Q643.8594,705.2344 643.8594,705.8438 L643.8594,707.2969 Q643.8594,707.9063 643.625,708.1719 Q643.3906,708.4375 643.0156,708.4375 Q642.6719,708.4375 642.4688,708.2344 Q642.2656,708.0469 642.1563,707.5313 Q642.1094,707.1719 641.9219,706.9844 Q641.5938,706.6094 640.9844,706.3906 Q640.375,706.1719 639.75,706.1719 Q638.9844,706.1719 638.3438,706.5 Q637.7188,706.8281 637.2188,707.5781 Q636.7344,708.3281 636.7344,709.3594 L636.7344,710.4531 Q636.7344,711.6875 637.625,712.5156 Q638.5156,713.3281 640.1094,713.3281 Q641.0469,713.3281 641.7031,713.0781 Q642.0938,712.9219 642.5156,712.4844 Q642.7813,712.2188 642.9219,712.1406 Q643.0781,712.0625 643.2813,712.0625 Q643.6094,712.0625 643.8594,712.3281 Q644.125,712.5781 644.125,712.9219 Q644.125,713.2656 643.7813,713.6719 Q643.2813,714.25 642.4844,714.5781 Q641.4063,715.0313 640.1094,715.0313 Q638.5938,715.0313 637.3906,714.4063 Q636.4063,713.9063 635.7188,712.8438 Q635.0313,711.7656 635.0313,710.4844 L635.0313,709.3281 Q635.0313,708 635.6406,706.8594 Q636.2656,705.7031 637.3594,705.0938 Q638.4531,704.4688 639.6875,704.4688 Q640.4219,704.4688 641.0625,704.6406 Q641.7188,704.7969 642.2656,705.1563 Z " fill="#000000"/><text fill="#000000" font-family="sans-serif" font-size="12" lengthAdjust="spacing" textLength="45" x="653.5" y="714.1914">Property</text><line style="stroke:#A80036;stroke-width:1.5;" x1="625.5" x2="700.5" y1="725.2813" y2="725.2813"/><line style="stroke:#A80036;stroke-width:1.5;" x1="625.5" x2="700.5" y1="733.2813" y2="733.2813"/><!--MD5=[ae364a480eca9bce81cf95d7db7ab2e6]
class hk.edu.polyu.comp.comp3211.monopoly.model.squares.Tax--><rect codeLine="131" fill="#FEFECE" filter="url(#f15qczebc8nm99)" height="48" id="hk.edu.polyu.comp.comp3211.monopoly.model.squares.Tax" style="stroke:#A80036;stroke-width:1.5;" width="51" x="736.5" y="693.2813"/><ellipse cx="751.5" cy="709.2813" fill="#ADD1B2" rx="11" ry="11" style="stroke:#A80036;stroke-width:1.0;"/><path d="M754.2656,705.1563 Q754.4219,704.9375 754.6094,704.8281 Q754.7969,704.7188 755.0156,704.7188 Q755.3906,704.7188 755.625,704.9844 Q755.8594,705.2344 755.8594,705.8438 L755.8594,707.2969 Q755.8594,707.9063 755.625,708.1719 Q755.3906,708.4375 755.0156,708.4375 Q754.6719,708.4375 754.4688,708.2344 Q754.2656,708.0469 754.1563,707.5313 Q754.1094,707.1719 753.9219,706.9844 Q753.5938,706.6094 752.9844,706.3906 Q752.375,706.1719 751.75,706.1719 Q750.9844,706.1719 750.3438,706.5 Q749.7188,706.8281 749.2188,707.5781 Q748.7344,708.3281 748.7344,709.3594 L748.7344,710.4531 Q748.7344,711.6875 749.625,712.5156 Q750.5156,713.3281 752.1094,713.3281 Q753.0469,713.3281 753.7031,713.0781 Q754.0938,712.9219 754.5156,712.4844 Q754.7813,712.2188 754.9219,712.1406 Q755.0781,712.0625 755.2813,712.0625 Q755.6094,712.0625 755.8594,712.3281 Q756.125,712.5781 756.125,712.9219 Q756.125,713.2656 755.7813,713.6719 Q755.2813,714.25 754.4844,714.5781 Q753.4063,715.0313 752.1094,715.0313 Q750.5938,715.0313 749.3906,714.4063 Q748.4063,713.9063 747.7188,712.8438 Q747.0313,711.7656 747.0313,710.4844 L747.0313,709.3281 Q747.0313,708 747.6406,706.8594 Q748.2656,705.7031 749.3594,705.0938 Q750.4531,704.4688 751.6875,704.4688 Q752.4219,704.4688 753.0625,704.6406 Q753.7188,704.7969 754.2656,705.1563 Z " fill="#000000"/><text fill="#000000" font-family="sans-serif" font-size="12" lengthAdjust="spacing" textLength="19" x="765.5" y="714.1914">Tax</text><line style="stroke:#A80036;stroke-width:1.5;" x1="737.5" x2="786.5" y1="725.2813" y2="725.2813"/><line style="stroke:#A80036;stroke-width:1.5;" x1="737.5" x2="786.5" y1="733.2813" y2="733.2813"/><!--MD5=[dc19781d1fd666a2026b0e5ade766e9d]
class hk.edu.polyu.comp.comp3211.monopoly.view.Printer--><rect codeLine="140" fill="#FEFECE" filter="url(#f15qczebc8nm99)" height="48" id="hk.edu.polyu.comp.comp3211.monopoly.view.Printer" style="stroke:#A80036;stroke-width:1.5;" width="68" x="222" y="390.2813"/><ellipse cx="237" cy="406.2813" fill="#ADD1B2" rx="11" ry="11" style="stroke:#A80036;stroke-width:1.0;"/><path d="M239.7656,402.1563 Q239.9219,401.9375 240.1094,401.8281 Q240.2969,401.7188 240.5156,401.7188 Q240.8906,401.7188 241.125,401.9844 Q241.3594,402.2344 241.3594,402.8438 L241.3594,404.2969 Q241.3594,404.9063 241.125,405.1719 Q240.8906,405.4375 240.5156,405.4375 Q240.1719,405.4375 239.9688,405.2344 Q239.7656,405.0469 239.6563,404.5313 Q239.6094,404.1719 239.4219,403.9844 Q239.0938,403.6094 238.4844,403.3906 Q237.875,403.1719 237.25,403.1719 Q236.4844,403.1719 235.8438,403.5 Q235.2188,403.8281 234.7188,404.5781 Q234.2344,405.3281 234.2344,406.3594 L234.2344,407.4531 Q234.2344,408.6875 235.125,409.5156 Q236.0156,410.3281 237.6094,410.3281 Q238.5469,410.3281 239.2031,410.0781 Q239.5938,409.9219 240.0156,409.4844 Q240.2813,409.2188 240.4219,409.1406 Q240.5781,409.0625 240.7813,409.0625 Q241.1094,409.0625 241.3594,409.3281 Q241.625,409.5781 241.625,409.9219 Q241.625,410.2656 241.2813,410.6719 Q240.7813,411.25 239.9844,411.5781 Q238.9063,412.0313 237.6094,412.0313 Q236.0938,412.0313 234.8906,411.4063 Q233.9063,410.9063 233.2188,409.8438 Q232.5313,408.7656 232.5313,407.4844 L232.5313,406.3281 Q232.5313,405 233.1406,403.8594 Q233.7656,402.7031 234.8594,402.0938 Q235.9531,401.4688 237.1875,401.4688 Q237.9219,401.4688 238.5625,401.6406 Q239.2188,401.7969 239.7656,402.1563 Z " fill="#000000"/><text fill="#000000" font-family="sans-serif" font-size="12" lengthAdjust="spacing" textLength="36" x="251" y="411.1914">Printer</text><line style="stroke:#A80036;stroke-width:1.5;" x1="223" x2="289" y1="422.2813" y2="422.2813"/><line style="stroke:#A80036;stroke-width:1.5;" x1="223" x2="289" y1="430.2813" y2="430.2813"/><!--MD5=[6b1d8e87a9a32d7fd4196f4b0410388a]
reverse link hk.edu.polyu.comp.comp3211.monopoly.controller.IBase to hk.edu.polyu.comp.comp3211.monopoly.controller.EndGame--><path codeLine="146" d="M239,193.5413 C222.79,209.0213 204.48,226.5213 190.25,240.1113 " fill="none" id="hk.edu.polyu.comp.comp3211.monopoly.controller.IBase-backto-hk.edu.polyu.comp.comp3211.monopoly.controller.EndGame" style="stroke:#A80036;stroke-width:1.0;stroke-dasharray:7.0,7.0;"/><polygon fill="none" points="234.4,188.2513,253.7,179.5013,244.07,198.3713,234.4,188.2513" style="stroke:#A80036;stroke-width:1.0;"/><!--MD5=[8f75ad3766f88078eb62b117730fb1a6]
reverse link hk.edu.polyu.comp.comp3211.monopoly.controller.IBase to hk.edu.polyu.comp.comp3211.monopoly.controller.Game--><path codeLine="147" d="M278,199.8613 C278,213.6413 278,228.3412 278,240.1113 " fill="none" id="hk.edu.polyu.comp.comp3211.monopoly.controller.IBase-backto-hk.edu.polyu.comp.comp3211.monopoly.controller.Game" style="stroke:#A80036;stroke-width:1.0;stroke-dasharray:7.0,7.0;"/><polygon fill="none" points="271,199.5013,278,179.5013,285,199.5013,271,199.5013" style="stroke:#A80036;stroke-width:1.0;"/><!--MD5=[78069e6d855f7bfb365b03bb1814f79d]
reverse link hk.edu.polyu.comp.comp3211.monopoly.controller.Game to hk.edu.polyu.comp.comp3211.monopoly.model.Board--><path codeLine="148" d="M245.64,297.5213 C239.94,302.6713 233.93,307.7713 228,312.2813 C204.82,329.9013 190,323.3913 172,346.2813 C113.94,420.0913 96.06,535.3612 90.93,584.1813 " fill="none" id="hk.edu.polyu.comp.comp3211.monopoly.controller.Game-backto-hk.edu.polyu.comp.comp3211.monopoly.model.Board" style="stroke:#A80036;stroke-width:1.0;"/><polygon fill="#FFFFFF" points="255.49,288.3412,248.3738,289.5075,246.7134,296.5248,253.8296,295.3586,255.49,288.3412" style="stroke:#A80036;stroke-width:1.0;"/><text fill="#000000" font-family="sans-serif" font-size="13" lengthAdjust="spacing" textLength="32" x="173" y="419.7764">board</text><!--MD5=[056ae82caa8d149318cccfe631c87416]
reverse link hk.edu.polyu.comp.comp3211.monopoly.controller.Game to hk.edu.polyu.comp.comp3211.monopoly.view.Printer--><path codeLine="149" d="M272.63,301.4313 C268.53,328.9612 263.02,366.0613 259.49,389.8312 " fill="none" id="hk.edu.polyu.comp.comp3211.monopoly.controller.Game-backto-hk.edu.polyu.comp.comp3211.monopoly.view.Printer" style="stroke:#A80036;stroke-width:1.0;"/><polygon fill="#FFFFFF" points="274.56,288.4013,269.72,293.7468,272.7928,300.2704,277.6328,294.9249,274.56,288.4013" style="stroke:#A80036;stroke-width:1.0;"/><text fill="#000000" font-family="sans-serif" font-size="13" lengthAdjust="spacing" textLength="36" x="270" y="334.7764">printer</text><!--MD5=[c2a7f670dc28b0cbf4ef6626fb83362f]
reverse link hk.edu.polyu.comp.comp3211.monopoly.controller.IBase to hk.edu.polyu.comp.comp3211.monopoly.controller.StartMenu--><path codeLine="150" d="M317,193.5413 C333.21,209.0213 351.52,226.5213 365.75,240.1113 " fill="none" id="hk.edu.polyu.comp.comp3211.monopoly.controller.IBase-backto-hk.edu.polyu.comp.comp3211.monopoly.controller.StartMenu" style="stroke:#A80036;stroke-width:1.0;stroke-dasharray:7.0,7.0;"/><polygon fill="none" points="311.93,198.3713,302.3,179.5013,321.6,188.2513,311.93,198.3713" style="stroke:#A80036;stroke-width:1.0;"/><!--MD5=[3f9e0c9544f2f198ea0f48fa10a2ac89]
reverse link hk.edu.polyu.comp.comp3211.monopoly.model.squares.ISquare to hk.edu.polyu.comp.comp3211.monopoly.model.squares.Chance--><path codeLine="151" d="M409.13,638.5813 C343.74,665.7813 318.38,666.0913 247,693.2813 C241.39,695.4213 235.5,697.7713 229.74,700.1213 " fill="none" id="hk.edu.polyu.comp.comp3211.monopoly.model.squares.ISquare-backto-hk.edu.polyu.comp.comp3211.monopoly.model.squares.Chance" style="stroke:#A80036;stroke-width:1.0;stroke-dasharray:7.0,7.0;"/><polygon fill="none" points="406.54,632.0713,427.68,630.6012,412.07,644.9313,406.54,632.0713" style="stroke:#A80036;stroke-width:1.0;"/><!--MD5=[a88b4c060375697145969f5cf167bf63]
reverse link hk.edu.polyu.comp.comp3211.monopoly.model.squares.ISquare to hk.edu.polyu.comp.comp3211.monopoly.model.squares.Free--><path codeLine="152" d="M411.29,643.1212 C381.53,661.5213 345.94,683.5313 321.63,698.5713 " fill="none" id="hk.edu.polyu.comp.comp3211.monopoly.model.squares.ISquare-backto-hk.edu.polyu.comp.comp3211.monopoly.model.squares.Free" style="stroke:#A80036;stroke-width:1.0;stroke-dasharray:7.0,7.0;"/><polygon fill="none" points="407.77,637.0613,428.46,632.5013,415.13,648.9713,407.77,637.0613" style="stroke:#A80036;stroke-width:1.0;"/><!--MD5=[0e7ddbec490d10e9543d6720b4ac7479]
reverse link hk.edu.polyu.comp.comp3211.monopoly.model.squares.ISquare to hk.edu.polyu.comp.comp3211.monopoly.model.squares.Go--><path codeLine="153" d="M434.87,648.4613 C422.96,663.4613 409.76,680.0813 399.41,693.1113 " fill="none" id="hk.edu.polyu.comp.comp3211.monopoly.model.squares.ISquare-backto-hk.edu.polyu.comp.comp3211.monopoly.model.squares.Go" style="stroke:#A80036;stroke-width:1.0;stroke-dasharray:7.0,7.0;"/><polygon fill="none" points="429.63,643.8013,447.56,632.5013,440.6,652.5113,429.63,643.8013" style="stroke:#A80036;stroke-width:1.0;"/><!--MD5=[ec2e7d9045f068a27e2387f80d5e6321]
reverse link hk.edu.polyu.comp.comp3211.monopoly.model.squares.ISquare to hk.edu.polyu.comp.comp3211.monopoly.model.squares.Jail--><path codeLine="154" d="M466,652.8612 C466,666.6413 466,681.3413 466,693.1113 " fill="none" id="hk.edu.polyu.comp.comp3211.monopoly.model.squares.ISquare-backto-hk.edu.polyu.comp.comp3211.monopoly.model.squares.Jail" style="stroke:#A80036;stroke-width:1.0;stroke-dasharray:7.0,7.0;"/><polygon fill="none" points="459,652.5013,466,632.5013,473,652.5013,459,652.5013" style="stroke:#A80036;stroke-width:1.0;"/><!--MD5=[a987d60dda8add77ba11a1aea2baef2c]
reverse link hk.edu.polyu.comp.comp3211.monopoly.model.squares.ISquare to hk.edu.polyu.comp.comp3211.monopoly.model.squares.Oops--><path codeLine="155" d="M499.27,647.9813 C512.28,663.1012 526.75,679.9413 538.08,693.1113 " fill="none" id="hk.edu.polyu.comp.comp3211.monopoly.model.squares.ISquare-backto-hk.edu.polyu.comp.comp3211.monopoly.model.squares.Oops" style="stroke:#A80036;stroke-width:1.0;stroke-dasharray:7.0,7.0;"/><polygon fill="none" points="493.69,652.2313,485.96,632.5013,504.31,643.1012,493.69,652.2313" style="stroke:#A80036;stroke-width:1.0;"/><!--MD5=[b9321f9297dc25584b074c56ca9dee5d]
reverse link hk.edu.polyu.comp.comp3211.monopoly.model.squares.ISquare to hk.edu.polyu.comp.comp3211.monopoly.model.squares.Property--><path codeLine="156" d="M522.17,639.7913 C554.85,657.5413 595.19,679.4513 624.31,695.2713 " fill="none" id="hk.edu.polyu.comp.comp3211.monopoly.model.squares.ISquare-backto-hk.edu.polyu.comp.comp3211.monopoly.model.squares.Property" style="stroke:#A80036;stroke-width:1.0;stroke-dasharray:7.0,7.0;"/><polygon fill="none" points="518.69,645.8612,504.45,630.1613,525.37,633.5613,518.69,645.8612" style="stroke:#A80036;stroke-width:1.0;"/><!--MD5=[2b5fb487cc719588df7336369b37761e]
reverse link hk.edu.polyu.comp.comp3211.monopoly.model.squares.Property to hk.edu.polyu.comp.comp3211.monopoly.model.Player--><path codeLine="157" d="M663,754.5613 C663,775.9113 663,802.2813 663,820.8913 " fill="none" id="hk.edu.polyu.comp.comp3211.monopoly.model.squares.Property-backto-hk.edu.polyu.comp.comp3211.monopoly.model.Player" style="stroke:#A80036;stroke-width:1.0;"/><polygon fill="#FFFFFF" points="663,741.3913,659,747.3913,663,753.3913,667,747.3913,663,741.3913" style="stroke:#A80036;stroke-width:1.0;"/><text fill="#000000" font-family="sans-serif" font-size="13" lengthAdjust="spacing" textLength="34" x="664" y="787.7764">owner</text><!--MD5=[ecc5df0a265eaee7659f81336151fe8e]
reverse link hk.edu.polyu.comp.comp3211.monopoly.model.squares.ISquare to hk.edu.polyu.comp.comp3211.monopoly.model.squares.Tax--><path codeLine="158" d="M523.59,625.3413 C575.56,640.5513 653.64,665.1913 719,693.2813 C724.76,695.7513 730.78,698.7213 736.43,701.6813 " fill="none" id="hk.edu.polyu.comp.comp3211.monopoly.model.squares.ISquare-backto-hk.edu.polyu.comp.comp3211.monopoly.model.squares.Tax" style="stroke:#A80036;stroke-width:1.0;stroke-dasharray:7.0,7.0;"/><polygon fill="none" points="521.32,631.9713,504.04,619.7113,525.2,618.5213,521.32,631.9713" style="stroke:#A80036;stroke-width:1.0;"/><!--MD5=[64aa58ea51d50fb45f019cf0bd64a761]
reverse link hk.edu.polyu.comp.comp3211.monopoly.view.Printer to hk.edu.polyu.comp.comp3211.monopoly.model.Board--><path codeLine="159" d="M210.53,438.4113 C186.45,452.4913 157.84,472.3713 138,496.2813 C116.21,522.5513 102.38,560.0213 95.16,584.0013 " fill="none" id="hk.edu.polyu.comp.comp3211.monopoly.view.Printer-backto-hk.edu.polyu.comp.comp3211.monopoly.model.Board" style="stroke:#A80036;stroke-width:1.0;"/><polygon fill="#FFFFFF" points="221.93,431.9713,214.739,431.433,211.4764,437.8638,218.6674,438.4021,221.93,431.9713" style="stroke:#A80036;stroke-width:1.0;"/><text fill="#000000" font-family="sans-serif" font-size="13" lengthAdjust="spacing" textLength="32" x="163" y="484.7764">board</text><text fill="#888888" font-family="sans-serif" font-size="10" lengthAdjust="spacing" textLength="0" x="856" y="925.6621"/><text fill="#888888" font-family="sans-serif" font-size="10" lengthAdjust="spacing" textLength="0" x="856" y="938.2402"/><text fill="#888888" font-family="sans-serif" font-size="10" lengthAdjust="spacing" textLength="336" x="520" y="950.8184">COMP3211 Software Engineering Course Project: Monopoly, 2021 Fall</text><text fill="#888888" font-family="sans-serif" font-size="10" lengthAdjust="spacing" textLength="302" x="554" y="963.3965">by Group 22: MAN Furui, LIU Sicheng, WANG Meng, XING Shiji</text><!--MD5=[d58e40be5d276d2b70599ed4711467f3]
@startuml

title __MONOPOLY's Class Diagram__\n

  namespace hk.edu.polyu.comp.comp3211.monopoly {
    class hk.edu.polyu.comp.comp3211.monopoly.Main {
    }
  }
  

  namespace hk.edu.polyu.comp.comp3211.monopoly {
    namespace controller {
      class hk.edu.polyu.comp.comp3211.monopoly.controller.EndGame {
      }
    }
  }
  

  namespace hk.edu.polyu.comp.comp3211.monopoly {
    namespace controller {
      class hk.edu.polyu.comp.comp3211.monopoly.controller.Game {
      }
    }
  }
  

  namespace hk.edu.polyu.comp.comp3211.monopoly {
    namespace controller {
      interface hk.edu.polyu.comp.comp3211.monopoly.controller.IBase {
      }
    }
  }
  

  namespace hk.edu.polyu.comp.comp3211.monopoly {
    namespace controller {
      class hk.edu.polyu.comp.comp3211.monopoly.controller.StartMenu {
      }
    }
  }
  

  namespace hk.edu.polyu.comp.comp3211.monopoly {
    namespace model {
      class hk.edu.polyu.comp.comp3211.monopoly.model.Board {
      }
    }
  }
  

  namespace hk.edu.polyu.comp.comp3211.monopoly {
    namespace model {
      class hk.edu.polyu.comp.comp3211.monopoly.model.Player {
      }
    }
  }
  

  namespace hk.edu.polyu.comp.comp3211.monopoly {
    namespace model {
      namespace squares {
        class hk.edu.polyu.comp.comp3211.monopoly.model.squares.Chance {
        }
      }
    }
  }
  

  namespace hk.edu.polyu.comp.comp3211.monopoly {
    namespace model {
      namespace squares {
        class hk.edu.polyu.comp.comp3211.monopoly.model.squares.Free {
        }
      }
    }
  }
  

  namespace hk.edu.polyu.comp.comp3211.monopoly {
    namespace model {
      namespace squares {
        class hk.edu.polyu.comp.comp3211.monopoly.model.squares.Go {
        }
      }
    }
  }
  

  namespace hk.edu.polyu.comp.comp3211.monopoly {
    namespace model {
      namespace squares {
        interface hk.edu.polyu.comp.comp3211.monopoly.model.squares.ISquare {
        }
      }
    }
  }
  

  namespace hk.edu.polyu.comp.comp3211.monopoly {
    namespace model {
      namespace squares {
        class hk.edu.polyu.comp.comp3211.monopoly.model.squares.Jail {
        }
      }
    }
  }
  

  namespace hk.edu.polyu.comp.comp3211.monopoly {
    namespace model {
      namespace squares {
        class hk.edu.polyu.comp.comp3211.monopoly.model.squares.Oops {
        }
      }
    }
  }
  

  namespace hk.edu.polyu.comp.comp3211.monopoly {
    namespace model {
      namespace squares {
        class hk.edu.polyu.comp.comp3211.monopoly.model.squares.Property {
        }
      }
    }
  }
  

  namespace hk.edu.polyu.comp.comp3211.monopoly {
    namespace model {
      namespace squares {
        class hk.edu.polyu.comp.comp3211.monopoly.model.squares.Tax {
        }
      }
    }
  }
  

  namespace hk.edu.polyu.comp.comp3211.monopoly {
    namespace view {
      class hk.edu.polyu.comp.comp3211.monopoly.view.Printer {
      }
    }
  }
  

  hk.edu.polyu.comp.comp3211.monopoly.controller.EndGame .up.|> hk.edu.polyu.comp.comp3211.monopoly.controller.IBase
  hk.edu.polyu.comp.comp3211.monopoly.controller.Game .up.|> hk.edu.polyu.comp.comp3211.monopoly.controller.IBase
  hk.edu.polyu.comp.comp3211.monopoly.controller.Game o- - hk.edu.polyu.comp.comp3211.monopoly.model.Board : board
  hk.edu.polyu.comp.comp3211.monopoly.controller.Game o- - hk.edu.polyu.comp.comp3211.monopoly.view.Printer : printer
  hk.edu.polyu.comp.comp3211.monopoly.controller.StartMenu .up.|> hk.edu.polyu.comp.comp3211.monopoly.controller.IBase
  hk.edu.polyu.comp.comp3211.monopoly.model.squares.Chance .up.|> hk.edu.polyu.comp.comp3211.monopoly.model.squares.ISquare
  hk.edu.polyu.comp.comp3211.monopoly.model.squares.Free .up.|> hk.edu.polyu.comp.comp3211.monopoly.model.squares.ISquare
  hk.edu.polyu.comp.comp3211.monopoly.model.squares.Go .up.|> hk.edu.polyu.comp.comp3211.monopoly.model.squares.ISquare
  hk.edu.polyu.comp.comp3211.monopoly.model.squares.Jail .up.|> hk.edu.polyu.comp.comp3211.monopoly.model.squares.ISquare
  hk.edu.polyu.comp.comp3211.monopoly.model.squares.Oops .up.|> hk.edu.polyu.comp.comp3211.monopoly.model.squares.ISquare
  hk.edu.polyu.comp.comp3211.monopoly.model.squares.Property .up.|> hk.edu.polyu.comp.comp3211.monopoly.model.squares.ISquare
  hk.edu.polyu.comp.comp3211.monopoly.model.squares.Property o- - hk.edu.polyu.comp.comp3211.monopoly.model.Player : owner
  hk.edu.polyu.comp.comp3211.monopoly.model.squares.Tax .up.|> hk.edu.polyu.comp.comp3211.monopoly.model.squares.ISquare
  hk.edu.polyu.comp.comp3211.monopoly.view.Printer o- - hk.edu.polyu.comp.comp3211.monopoly.model.Board : board


right footer


COMP3211 Software Engineering Course Project: Monopoly, 2021 Fall
by Group 22: MAN Furui, LIU Sicheng, WANG Meng, XING Shiji
endfooter

@enduml

PlantUML version 1.2021.4(Sun Apr 04 16:49:39 HKT 2021)
(GPL source distribution)
Java Runtime: Java(TM) SE Runtime Environment
JVM: Java HotSpot(TM) 64-Bit Server VM
Default Encoding: Cp1252
Language: en
Country: US
--></g></svg>