<?xml version="1.0" encoding="UTF-8" standalone="no"?><svg xmlns="http://www.w3.org/2000/svg" xmlns:xlink="http://www.w3.org/1999/xlink" contentScriptType="application/ecmascript" contentStyleType="text/css" height="459px" preserveAspectRatio="none" style="width:423px;height:459px;" version="1.1" viewBox="0 0 423 459" width="423px" zoomAndPan="magnify"><defs><filter height="300%" id="f9mhgaa8nfnay" width="300%" x="-1" y="-1"><feGaussianBlur result="blurOut" stdDeviation="2.0"/><feColorMatrix in="blurOut" result="blurOut2" type="matrix" values="0 0 0 0 0 0 0 0 0 0 0 0 0 0 0 0 0 0 .4 0"/><feOffset dx="4.0" dy="4.0" in="blurOut2" result="blurOut3"/><feBlend in="SourceGraphic" in2="blurOut3" mode="normal"/></filter></defs><g><text fill="#000000" font-family="sans-serif" font-size="18" lengthAdjust="spacing" text-decoration="underline" textLength="178" x="116" y="18.6855">VIEW's Class Diagram</text><text fill="#000000" font-family="sans-serif" font-size="18" lengthAdjust="spacing" textLength="0" x="207.5" y="41.3262"/><!--MD5=[5508ff9bbedac472b1f23f1d1e06e5c5]
cluster hk.edu.polyu.comp.comp3211.monopoly--><polygon fill="#FFFFFF" filter="url(#f9mhgaa8nfnay)" points="16,51.2813,300,51.2813,307,74.8906,310,74.8906,310,247.2813,16,247.2813,16,51.2813" style="stroke:#000000;stroke-width:1.5;"/><line style="stroke:#000000;stroke-width:1.5;" x1="16" x2="307" y1="74.8906" y2="74.8906"/><text fill="#000000" font-family="sans-serif" font-size="14" font-weight="bold" lengthAdjust="spacing" textLength="278" x="20" y="67.8145">hk.edu.polyu.comp.comp3211.monopoly</text><!--MD5=[975ca0cb6ea56eddfec2f457787041d8]
cluster hk.edu.polyu.comp.comp3211.monopoly.view--><polygon fill="#FFFFFF" filter="url(#f9mhgaa8nfnay)" points="113,95.2813,152,95.2813,159,118.8906,213,118.8906,213,223.2813,113,223.2813,113,95.2813" style="stroke:#000000;stroke-width:1.5;"/><line style="stroke:#000000;stroke-width:1.5;" x1="113" x2="159" y1="118.8906" y2="118.8906"/><text fill="#000000" font-family="sans-serif" font-size="14" font-weight="bold" lengthAdjust="spacing" textLength="33" x="117" y="111.8145">view</text><!--MD5=[e0d38505e61bf288b3ba973930295e9b]
cluster hk.edu.polyu.comp.comp3211.monopoly.model--><polygon fill="#FFFFFF" filter="url(#f9mhgaa8nfnay)" points="65,297.2813,396,297.2813,403,320.8906,406,320.8906,406,397.2813,65,397.2813,65,297.2813" style="stroke:#000000;stroke-width:1.5;"/><line style="stroke:#000000;stroke-width:1.5;" x1="65" x2="403" y1="320.8906" y2="320.8906"/><text fill="#000000" font-family="sans-serif" font-size="14" font-weight="bold" lengthAdjust="spacing" textLength="325" x="69" y="313.8145">hk.edu.polyu.comp.comp3211.monopoly.model</text><!--MD5=[dc19781d1fd666a2026b0e5ade766e9d]
class hk.edu.polyu.comp.comp3211.monopoly.view.Printer--><rect codeLine="6" fill="#FEFECE" filter="url(#f9mhgaa8nfnay)" height="75.6719" id="hk.edu.polyu.comp.comp3211.monopoly.view.Printer" style="stroke:#A80036;stroke-width:1.5;" width="68" x="129" y="131.2813"/><ellipse cx="144" cy="147.2813" fill="#ADD1B2" rx="11" ry="11" style="stroke:#A80036;stroke-width:1.0;"/><path d="M146.7656,143.1563 Q146.9219,142.9375 147.1094,142.8281 Q147.2969,142.7188 147.5156,142.7188 Q147.8906,142.7188 148.125,142.9844 Q148.3594,143.2344 148.3594,143.8438 L148.3594,145.2969 Q148.3594,145.9063 148.125,146.1719 Q147.8906,146.4375 147.5156,146.4375 Q147.1719,146.4375 146.9688,146.2344 Q146.7656,146.0469 146.6563,145.5313 Q146.6094,145.1719 146.4219,144.9844 Q146.0938,144.6094 145.4844,144.3906 Q144.875,144.1719 144.25,144.1719 Q143.4844,144.1719 142.8438,144.5 Q142.2188,144.8281 141.7188,145.5781 Q141.2344,146.3281 141.2344,147.3594 L141.2344,148.4531 Q141.2344,149.6875 142.125,150.5156 Q143.0156,151.3281 144.6094,151.3281 Q145.5469,151.3281 146.2031,151.0781 Q146.5938,150.9219 147.0156,150.4844 Q147.2813,150.2188 147.4219,150.1406 Q147.5781,150.0625 147.7813,150.0625 Q148.1094,150.0625 148.3594,150.3281 Q148.625,150.5781 148.625,150.9219 Q148.625,151.2656 148.2813,151.6719 Q147.7813,152.25 146.9844,152.5781 Q145.9063,153.0313 144.6094,153.0313 Q143.0938,153.0313 141.8906,152.4063 Q140.9063,151.9063 140.2188,150.8438 Q139.5313,149.7656 139.5313,148.4844 L139.5313,147.3281 Q139.5313,146 140.1406,144.8594 Q140.7656,143.7031 141.8594,143.0938 Q142.9531,142.4688 144.1875,142.4688 Q144.9219,142.4688 145.5625,142.6406 Q146.2188,142.7969 146.7656,143.1563 Z " fill="#000000"/><text fill="#000000" font-family="sans-serif" font-size="12" lengthAdjust="spacing" textLength="36" x="158" y="152.1914">Printer</text><line style="stroke:#A80036;stroke-width:1.5;" x1="130" x2="196" y1="163.2813" y2="163.2813"/><line style="stroke:#A80036;stroke-width:1.5;" x1="130" x2="196" y1="171.2813" y2="171.2813"/><ellipse cx="140" cy="182.2813" fill="#84BE84" rx="3" ry="3" style="stroke:#038048;stroke-width:1.0;"/><text fill="#000000" font-family="sans-serif" font-size="11" lengthAdjust="spacing" textLength="29" x="149" y="186.7002">Print()</text><ellipse cx="140" cy="196.1172" fill="#84BE84" rx="3" ry="3" style="stroke:#038048;stroke-width:1.0;"/><text fill="#000000" font-family="sans-serif" font-size="11" lengthAdjust="spacing" textLength="39" x="149" y="200.5361">Printer()</text><!--MD5=[fb9a7c962297ff12a4d5b142d4389831]
class hk.edu.polyu.comp.comp3211.monopoly.model.Board--><rect fill="#FEFECE" filter="url(#f9mhgaa8nfnay)" height="48" id="hk.edu.polyu.comp.comp3211.monopoly.model.Board" style="stroke:#A80036;stroke-width:1.5;" width="65" x="130.5" y="333.2813"/><ellipse cx="145.5" cy="349.2813" fill="#ADD1B2" rx="11" ry="11" style="stroke:#A80036;stroke-width:1.0;"/><path d="M148.2656,345.1563 Q148.4219,344.9375 148.6094,344.8281 Q148.7969,344.7188 149.0156,344.7188 Q149.3906,344.7188 149.625,344.9844 Q149.8594,345.2344 149.8594,345.8438 L149.8594,347.2969 Q149.8594,347.9063 149.625,348.1719 Q149.3906,348.4375 149.0156,348.4375 Q148.6719,348.4375 148.4688,348.2344 Q148.2656,348.0469 148.1563,347.5313 Q148.1094,347.1719 147.9219,346.9844 Q147.5938,346.6094 146.9844,346.3906 Q146.375,346.1719 145.75,346.1719 Q144.9844,346.1719 144.3438,346.5 Q143.7188,346.8281 143.2188,347.5781 Q142.7344,348.3281 142.7344,349.3594 L142.7344,350.4531 Q142.7344,351.6875 143.625,352.5156 Q144.5156,353.3281 146.1094,353.3281 Q147.0469,353.3281 147.7031,353.0781 Q148.0938,352.9219 148.5156,352.4844 Q148.7813,352.2188 148.9219,352.1406 Q149.0781,352.0625 149.2813,352.0625 Q149.6094,352.0625 149.8594,352.3281 Q150.125,352.5781 150.125,352.9219 Q150.125,353.2656 149.7813,353.6719 Q149.2813,354.25 148.4844,354.5781 Q147.4063,355.0313 146.1094,355.0313 Q144.5938,355.0313 143.3906,354.4063 Q142.4063,353.9063 141.7188,352.8438 Q141.0313,351.7656 141.0313,350.4844 L141.0313,349.3281 Q141.0313,348 141.6406,346.8594 Q142.2656,345.7031 143.3594,345.0938 Q144.4531,344.4688 145.6875,344.4688 Q146.4219,344.4688 147.0625,344.6406 Q147.7188,344.7969 148.2656,345.1563 Z " fill="#000000"/><text fill="#000000" font-family="sans-serif" font-size="12" lengthAdjust="spacing" textLength="33" x="159.5" y="354.1914">Board</text><line style="stroke:#A80036;stroke-width:1.5;" x1="131.5" x2="194.5" y1="365.2813" y2="365.2813"/><line style="stroke:#A80036;stroke-width:1.5;" x1="131.5" x2="194.5" y1="373.2813" y2="373.2813"/><!--MD5=[64aa58ea51d50fb45f019cf0bd64a761]
reverse link hk.edu.polyu.comp.comp3211.monopoly.view.Printer to hk.edu.polyu.comp.comp3211.monopoly.model.Board--><path codeLine="14" d="M163,220.9013 C163,257.5413 163,305.3413 163,333.2413 " fill="none" id="hk.edu.polyu.comp.comp3211.monopoly.view.Printer-backto-hk.edu.polyu.comp.comp3211.monopoly.model.Board" style="stroke:#A80036;stroke-width:1.0;"/><polygon fill="#FFFFFF" points="163,207.4713,159,213.4713,163,219.4713,167,213.4713,163,207.4713" style="stroke:#A80036;stroke-width:1.0;"/><text fill="#000000" font-family="sans-serif" font-size="13" lengthAdjust="spacing" textLength="32" x="164" y="277.7764">board</text><text fill="#888888" font-family="sans-serif" font-size="10" lengthAdjust="spacing" textLength="0" x="410" y="413.6621"/><text fill="#888888" font-family="sans-serif" font-size="10" lengthAdjust="spacing" textLength="0" x="410" y="426.2402"/><text fill="#888888" font-family="sans-serif" font-size="10" lengthAdjust="spacing" textLength="336" x="74" y="438.8184">COMP3211 Software Engineering Course Project: Monopoly, 2021 Fall</text><text fill="#888888" font-family="sans-serif" font-size="10" lengthAdjust="spacing" textLength="302" x="108" y="451.3965">by Group 22: MAN Furui, LIU Sicheng, WANG Meng, XING Shiji</text><!--MD5=[5ad2f9cb367e296f976d4a5d4eb31582]
@startuml

title __VIEW's Class Diagram__\n

  namespace hk.edu.polyu.comp.comp3211.monopoly {
    namespace view {
      class hk.edu.polyu.comp.comp3211.monopoly.view.Printer {
          + Print()
          + Printer()
      }
    }
  }
  

  hk.edu.polyu.comp.comp3211.monopoly.view.Printer o- - hk.edu.polyu.comp.comp3211.monopoly.model.Board : board


right footer


COMP3211 Software Engineering Course Project: Monopoly, 2021 Fall
by Group 22: MAN Furui, LIU Sicheng, WANG Meng, XING Shiji
endfooter

@enduml

PlantUML version 1.2021.4(Sun Apr 04 16:49:39 HKT 2021)
(GPL source distribution)
Java Runtime: Java(TM) SE Runtime Environment
JVM: Java HotSpot(TM) 64-Bit Server VM
Default Encoding: Cp1252
Language: en
Country: US
--></g></svg>